<?xml version="1.0" encoding="UTF-8"?>
<!DOCTYPE svg PUBLIC "-//W3C//DTD SVG 1.1//EN" "http://www.w3.org/Graphics/SVG/1.1/DTD/svg11.dtd">
<!-- Creator: CorelDRAW 2021 (64-Bit) -->
<svg xmlns="http://www.w3.org/2000/svg" xml:space="preserve" width="512px" height="512px" version="1.1" style="shape-rendering:geometricPrecision; text-rendering:geometricPrecision; image-rendering:optimizeQuality; fill-rule:evenodd; clip-rule:evenodd"
viewBox="0 0 512 512"
 xmlns:xlink="http://www.w3.org/1999/xlink"
 xmlns:xodm="http://www.corel.com/coreldraw/odm/2003">
 <defs>
  <style type="text/css">
   <![CDATA[
    .fil0 {fill:#494949}
    @media (prefers-color-scheme:dark){.fil0{fill:#fff}}
   ]]>
  </style>
 </defs>
 <g id="Layer_x0020_1">
  <metadata id="CorelCorpID_0Corel-Layer"/>
  <path class="fil0" d="M256.1 509.85l-1.72 0c-0.87,-0.01 -1.75,-0.24 -2.56,-0.7l-213.05 -124.07c-1.52,-0.89 -2.54,-2.54 -2.54,-4.43l0.12 -248.65c-0.17,-1.91 0.75,-3.84 2.52,-4.87l212.8 -124.19c0.79,-0.5 1.73,-0.79 2.74,-0.79l1.68 0c0.87,0.01 1.75,0.24 2.56,0.7l213.05 124.07c1.52,0.89 2.54,2.54 2.54,4.43l-0.13 248.66c0.17,1.91 -0.75,3.84 -2.52,4.87l-212.75 124.17c-0.8,0.51 -1.73,0.8 -2.74,0.8zm-71.16 -436.64c-1.67,33.65 -1.54,35.26 12.03,67.72 2.83,6.77 6.37,13.75 9.86,20.62 4.16,8.2 8.25,16.27 11.14,23.94 0.99,2.64 -0.34,5.59 -2.98,6.58 -1.57,0.59 -3.25,0.36 -4.56,-0.48 -6.39,-4.09 -12.11,-8.61 -17.98,-13.24l-6.64 -5.18c-7.49,-5.73 -19.72,-15.42 -29.96,-24.61 -7.12,-6.4 -13.39,-12.68 -16.73,-17.5 -4.09,-5.9 -8.11,-13.99 -11.18,-20.19l-1.82 -3.63 -63.56 36.89 0.13 79.71c1.49,1.17 3.62,2.61 5.95,4.08l0.27 0.19c4.58,2.88 9.78,5.78 12.7,7.23 20.77,10.35 43.29,11.77 67.61,13.31 8.1,0.51 16.4,1.04 25.13,1.93 2.81,0.27 4.86,2.78 4.59,5.58 -0.17,1.72 -1.17,3.15 -2.56,3.95l-6.08 3.44 -0.75 0.35c-9.15,3.85 -23.89,9.98 -37.88,15.3l-0.25 0.09c-14.54,5.52 -28.9,10.43 -37.24,11.81 -8.39,1.39 -15.55,0.88 -22.48,0.39 -3.03,-0.22 -6.03,-0.43 -9,-0.46l0 76.84c5.86,3.88 25.78,15.23 35.57,20.81l4.99 2.86c7.96,4.59 14.3,8.32 21.54,12.58l0.47 0.27c2.99,1.59 6.27,-0.45 13.57,-5l3.6 -2.22c21.17,-12.98 37.12,-37.95 48.53,-55.81 5.41,-8.47 9.86,-15.43 13.69,-19.32 1.98,-2.01 5.22,-2.04 7.23,-0.06 1.11,1.09 1.61,2.56 1.51,4 -0.25,9.68 -3.17,32.53 -7.07,53.52 -3.07,16.59 -6.8,32.2 -10.35,39.68 -2.61,5.49 -5.56,9.88 -8.41,14.13 -1.11,1.65 -2.21,3.28 -3.24,4.92l71.05 41.76c0.37,-0.11 1.45,-0.81 2.61,-1.56l0.02 -0.01c0.74,-0.49 1.5,-0.98 2.26,-1.41 7.66,-4.39 15.86,-9.28 24.27,-14.3 14.24,-8.5 29.1,-17.38 40.42,-23.33 1.68,-10.32 1.41,-20.22 -0.16,-29.64 -1.7,-10.24 -4.94,-19.98 -8.85,-29.11 -3.71,-8.68 -7.61,-17.48 -11.65,-26.17 -4.07,-8.76 -8.22,-17.26 -12.35,-25.19 -1.31,-2.5 -0.34,-5.58 2.16,-6.89 1.59,-0.83 3.42,-0.74 4.88,0.09 6.44,3.67 24.81,17.76 41.18,31.47 13.46,11.27 25.78,22.47 29.43,27.77 2.83,4.12 6.72,10.16 9.96,16.27 1.26,2.39 2.44,4.81 3.43,7.15l64.66 -37.12 0.13 -78.8c-5.23,-4.38 -12.24,-8.56 -19.7,-12.06 -8.74,-4.08 -18.06,-7.2 -25.89,-8.55 -16.12,-2.78 -32.46,-3.91 -48.88,-5.04 -6.27,-0.44 -12.59,-0.88 -18.21,-1.34 -2.82,-0.23 -4.91,-2.71 -4.68,-5.53 0.14,-1.67 1.07,-3.09 2.39,-3.92 6.74,-4.6 42.59,-18.04 52.16,-21.62l1.89 -0.72c3.88,-1.47 8.85,-3.29 14.02,-4.95 5.21,-1.67 10.59,-3.15 15.2,-3.9 8.54,-1.38 15.8,-0.83 22.89,-0.3 2.97,0.23 5.9,0.45 8.81,0.51l-0.01 -77.27 -51.24 -30.26c-1.36,-0.79 -2.64,-1.59 -3.95,-2.42 -2.26,-1.44 -4.66,-2.96 -5.97,-3.52 -2.21,-0.94 -12.37,5.39 -17.12,8.34l-1.78 1.09c-18.4,11.23 -30.17,28.25 -42.22,45.68l-5.05 7.29c-1.44,2.03 -2.56,3.68 -3.48,5.07l-3.11 4.88 -6.33 9.03c-0.49,0.61 -0.9,1.06 -1.44,1.64l-1.17 1.02c-2.15,1.82 -5.38,1.55 -7.2,-0.6 -0.91,-1.08 -1.3,-2.43 -1.19,-3.73 0.54,-11.65 3.38,-34.92 7.5,-55.97 3.1,-15.85 6.96,-30.63 11.19,-38.75 4.27,-8.19 7.01,-11.92 9.87,-15.8l2.17 -2.99 -71.85 -42.37c-0.94,-0.16 -5.14,2.48 -9.38,5.15 -1.74,1.1 -3.5,2.21 -5.25,3.2 -2.91,1.65 -6.25,3.63 -9.6,5.61 -3.09,1.82 -6.2,3.65 -9.88,5.74l-36.35 21.36zm26.64 149.6c8.89,-11.5 22.24,-19.19 36.78,-21.15l0.52 -0.08c15.69,-1.97 29.95,2.96 40.75,11.78 10.77,8.79 18.09,21.48 19.91,35.04l0.06 0.47c2.02,16.08 -2.86,30.59 -11.71,41.52 -8.72,10.76 -21.33,18.04 -34.99,19.91l-0.77 0.11c-15.96,1.95 -30.39,-2.94 -41.28,-11.75 -10.77,-8.71 -18.05,-21.32 -19.91,-34.99l-0.12 -0.76c-1.9,-15.58 2.54,-29.45 10.76,-40.1zm39.88 3.82c-13.86,1.85 -21.79,10.47 -24.45,20.53 -1.08,4.08 -1.33,8.38 -0.79,12.58 0.53,4.18 1.86,8.28 3.93,11.96l0.18 0.34c5.17,8.89 14.99,15.05 28.85,13.34l0.03 0c7.42,-0.93 14.29,-4.94 19.06,-10.87 4.77,-5.93 7.41,-13.81 6.34,-22.45l-0.03 -0.34c-0.99,-7.24 -5,-14.02 -10.87,-18.76l-0.24 -0.21c-5.83,-4.61 -13.44,-7.17 -21.68,-6.15l-0.33 0.03z"/>
 </g>
</svg>
