<?xml version="1.0" encoding="UTF-8"?>
<!DOCTYPE svg PUBLIC "-//W3C//DTD SVG 1.1//EN" "http://www.w3.org/Graphics/SVG/1.1/DTD/svg11.dtd">
<!-- Creator: CorelDRAW 2021 (64-Bit) -->
<svg xmlns="http://www.w3.org/2000/svg" xml:space="preserve" width="5.64823in" height="6.66666in" version="1.1" style="shape-rendering:geometricPrecision; text-rendering:geometricPrecision; image-rendering:optimizeQuality; fill-rule:evenodd; clip-rule:evenodd"
viewBox="0 0 5648.23 6666.66"
 xmlns:xlink="http://www.w3.org/1999/xlink"
 xmlns:xodm="http://www.corel.com/coreldraw/odm/2003">
 <defs>
  <style type="text/css">
   <![CDATA[
    .fil0 {fill:#494949}
   ]]>
  </style>
 </defs>
 <g id="Layer_x0020_1">
  <metadata id="CorelCorpID_0Corel-Layer"/>
  <path class="fil0" d="M2832.5 6551.74l-21.8 0c-11.05,-0.15 -22.22,-2.98 -32.48,-8.9l-2701.11 -1573.01c-19.25,-11.3 -32.23,-32.17 -32.23,-56.08l1.5 -3152.55c-2.09,-24.22 9.58,-48.63 31.96,-61.7l2697.98 -1574.54c10.04,-6.35 21.95,-10.04 34.72,-10.04l21.3 0c11.05,0.15 22.22,2.98 32.48,8.91l2701.2 1573c19.25,11.3 32.23,32.17 32.23,56.09l-1.66 3152.67c2.09,24.22 -9.57,48.63 -31.96,61.7l-2697.43 1574.39c-10.04,6.38 -21.95,10.07 -34.72,10.07zm-902.2 -5535.85c-21.15,426.57 -19.49,446.96 152.54,858.49 35.89,85.89 80.8,174.39 124.97,261.48 52.77,103.97 104.65,206.22 141.3,303.44 12.58,33.49 -4.33,70.91 -37.82,83.5 -19.89,7.49 -41.19,4.54 -57.83,-6.11 -80.95,-51.88 -153.46,-109.1 -227.96,-167.89l-84.15 -65.57c-94.98,-72.75 -250.03,-195.54 -379.79,-312.13 -90.31,-81.13 -169.85,-160.73 -212.21,-221.88 -51.76,-74.69 -102.78,-177.37 -141.73,-255.87l-22.99 -46.04 -805.84 467.61 1.66 1010.63c18.88,14.86 45.83,33.09 75.36,51.79l3.47 2.37c58.08,36.56 124.02,73.24 160.95,91.63 263.39,131.23 548.84,149.31 857.26,168.84 102.69,6.48 207.94,13.17 318.64,24.4 35.58,3.5 61.61,35.24 58.11,70.82 -2.15,21.73 -14.83,39.91 -32.48,49.97l-76.99 43.69 -9.57 4.45c-115.98,48.78 -302.93,126.51 -480.2,193.92l-3.22 1.14c-184.34,69.99 -366.37,132.28 -472.07,149.77 -106.46,17.62 -197.17,11.17 -285.06,4.91 -38.46,-2.73 -76.44,-5.43 -114.16,-5.83l0.06 974.25c74.32,49.18 326.81,193.09 450.98,263.85l63.3 36.28c100.87,58.2 181.3,105.48 273.08,159.41l5.96 3.44c37.85,20.2 79.44,-5.71 172,-63.3l45.59 -28.18c268.42,-164.6 470.72,-481.21 615.36,-707.61 68.61,-107.35 124.97,-195.6 173.56,-244.96 25.08,-25.51 66.13,-25.85 91.63,-0.77 14.06,13.81 20.48,32.48 19.19,50.71 -3.13,122.76 -40.24,412.51 -89.61,678.54 -39.02,210.34 -86.23,408.25 -131.32,503.07 -33,69.65 -70.42,125.31 -106.61,179.18 -14.06,20.91 -27.93,41.6 -41.07,62.44l900.85 529.41c4.63,-1.38 18.33,-10.22 33.03,-19.74l0.31 -0.19c9.33,-6.17 19,-12.4 28.61,-17.9 97.13,-55.56 201.07,-117.63 307.71,-181.3 180.59,-107.78 368.98,-220.26 512.53,-295.77 21.3,-130.8 17.8,-256.35 -2.03,-375.8 -21.55,-129.76 -62.65,-253.26 -112.23,-369.08 -47.09,-109.99 -96.51,-221.54 -147.72,-331.72 -51.63,-111.13 -104.16,-218.81 -156.62,-319.44 -16.55,-31.65 -4.27,-70.76 27.38,-87.3 20.2,-10.56 43.44,-9.36 61.92,1.07 81.69,46.51 314.59,225.26 522.07,399.01 170.74,142.96 326.87,284.96 373.1,352.13 35.92,52.22 85.22,128.75 126.29,206.29 16.06,30.3 30.97,60.94 43.53,90.59l819.72 -470.66 1.75 -999.05c-66.31,-55.44 -155.18,-108.52 -249.82,-152.81 -110.79,-51.81 -228.91,-91.29 -328.16,-108.39 -204.51,-35.27 -411.56,-49.64 -619.78,-64.01 -79.51,-5.52 -159.63,-11.05 -230.85,-16.94 -35.73,-2.94 -62.31,-34.32 -59.37,-70.05 1.75,-21.24 13.54,-39.23 30.33,-49.73 85.49,-58.33 539.97,-228.7 661.32,-274.16l23.88 -9.09c49.27,-18.67 112.29,-41.75 177.74,-62.74 66.12,-21.18 134.33,-40 192.72,-49.43 108.3,-17.5 200.36,-10.56 290.31,-3.81 37.54,2.83 74.75,5.62 111.65,6.45l-0.06 -979.74 -649.68 -383.6c-17.31,-9.94 -33.49,-20.17 -50.07,-30.7 -28.7,-18.2 -59.15,-37.52 -75.79,-44.61 -27.9,-11.91 -156.77,68.3 -216.94,105.76l-22.62 13.75c-233.24,142.47 -382.46,358.24 -535.28,579.23l-64.09 92.34c-18.17,25.81 -32.45,46.72 -44.05,64.37l-39.45 61.89 -80.3 114.47c-6.11,7.74 -11.36,13.35 -18.2,20.75l-14.76 12.93c-27.32,23.11 -68.24,19.71 -91.36,-7.61 -11.57,-13.66 -16.48,-30.76 -15.1,-47.3 6.81,-147.69 42.92,-442.72 95.07,-709.57 39.29,-200.98 88.26,-388.39 141.89,-491.28 54.12,-103.88 88.93,-151.09 125.19,-200.37l27.5 -37.85 -910.95 -537.2c-11.91,-2.09 -65.2,31.49 -118.92,65.32 -22.1,13.91 -44.39,27.96 -66.55,40.55 -36.9,20.94 -79.23,45.95 -121.78,71.07 -39.14,23.11 -78.52,46.38 -125.24,72.87l-460.87 270.81zm337.83 1896.68c112.72,-145.87 281.89,-243.37 466.33,-268.24l6.54 -1.01c198.86,-24.99 379.73,37.57 516.64,149.37 136.51,111.43 229.31,272.35 252.49,444.32l0.68 5.92c25.63,203.83 -36.29,387.83 -148.43,526.37 -110.51,136.45 -270.38,228.76 -443.61,252.39l-9.76 1.48c-202.42,24.65 -385.37,-37.24 -523.42,-148.98 -136.45,-110.45 -228.76,-270.29 -252.4,-443.58l-1.47 -9.64c-24.1,-197.63 32.14,-373.46 136.42,-508.41zm505.62 48.38c-175.71,23.52 -276.25,132.77 -310.02,260.35 -13.66,51.63 -16.82,106.22 -10.04,159.41 6.75,53.02 23.61,105.02 49.88,151.65l2.24 4.36c65.57,112.72 190.08,190.75 365.76,169.08l0.37 -0.03c94.06,-11.73 181.24,-62.59 241.69,-137.74 60.47,-75.24 93.9,-175.13 80.37,-284.69l-0.37 -4.24c-12.52,-91.79 -63.45,-177.77 -137.8,-237.91l-3.04 -2.64c-73.92,-58.42 -170.43,-90.87 -274.96,-77.97l-4.08 0.37z"/>
 </g>
</svg>
