<?xml version="1.0" encoding="UTF-8"?>
<!DOCTYPE svg PUBLIC "-//W3C//DTD SVG 1.1//EN" "http://www.w3.org/Graphics/SVG/1.1/DTD/svg11.dtd">
<!-- Creator: CorelDRAW 2021 (64-Bit) -->
<svg xmlns="http://www.w3.org/2000/svg" xml:space="preserve" width="1665px" height="260px" version="1.1" style="shape-rendering:geometricPrecision; text-rendering:geometricPrecision; image-rendering:optimizeQuality; fill-rule:evenodd; clip-rule:evenodd"
viewBox="0 0 1665 260"
 xmlns:xlink="http://www.w3.org/1999/xlink"
 xmlns:xodm="http://www.corel.com/coreldraw/odm/2003">
 <defs>
  <style type="text/css">
   <![CDATA[
    .fil0 {fill:#494949}
    .fil1 {fill:#494949;fill-rule:nonzero}
   ]]>
  </style>
 </defs>
 <g id="Layer_x0020_1">
  <metadata id="CorelCorpID_0Corel-Layer"/>
  <path class="fil0" d="M112.73 259.32l-0.88 0c-0.44,0 -0.89,-0.12 -1.3,-0.35l-108.54 -63.21c-0.77,-0.45 -1.3,-1.29 -1.3,-2.26l0.06 -126.67c-0.08,-0.98 0.39,-1.96 1.29,-2.48l108.41 -63.27c0.4,-0.26 0.88,-0.4 1.39,-0.4l0.86 0c0.45,0 0.89,0.12 1.31,0.35l108.54 63.21c0.77,0.45 1.29,1.29 1.29,2.25l-0.07 126.69c0.09,0.97 -0.38,1.95 -1.28,2.48l-108.39 63.26c-0.4,0.26 -0.88,0.4 -1.39,0.4zm-36.26 -222.44c-0.85,17.14 -0.78,17.96 6.13,34.5 1.45,3.45 3.25,7 5.02,10.5 2.13,4.18 4.21,8.29 5.68,12.2 0.51,1.34 -0.17,2.84 -1.52,3.35 -0.8,0.3 -1.65,0.18 -2.32,-0.24 -3.25,-2.09 -6.17,-4.39 -9.16,-6.75l-3.38 -2.64c-3.82,-2.92 -10.05,-7.85 -15.26,-12.54 -3.63,-3.26 -6.83,-6.46 -8.53,-8.91 -2.08,-3 -4.13,-7.13 -5.69,-10.28l-0.93 -1.85 -32.38 18.79 0.07 40.61c0.76,0.59 1.84,1.33 3.03,2.08l0.13 0.09c2.34,1.47 4.99,2.94 6.47,3.68 10.59,5.28 22.06,6 34.45,6.79 4.12,0.26 8.35,0.53 12.8,0.98 1.43,0.14 2.48,1.41 2.34,2.84 -0.09,0.88 -0.6,1.61 -1.31,2.01l-3.09 1.76 -0.39 0.18c-4.66,1.96 -12.17,5.08 -19.29,7.79 -7.45,2.83 -14.82,5.35 -19.1,6.06 -4.28,0.71 -7.92,0.45 -11.45,0.2 -1.55,-0.11 -3.08,-0.22 -4.59,-0.24l0 39.15c2.99,1.98 13.13,7.76 18.12,10.6l2.55 1.46c4.05,2.34 7.28,4.24 10.97,6.41l0.24 0.14c1.52,0.81 3.19,-0.23 6.91,-2.55l1.83 -1.13c10.79,-6.61 18.92,-19.34 24.73,-28.43 2.76,-4.32 5.02,-7.86 6.97,-9.85 1.01,-1.02 2.66,-1.04 3.68,-0.03 0.57,0.56 0.83,1.31 0.77,2.04 -0.12,4.93 -1.61,16.58 -3.6,27.27 -1.56,8.45 -3.46,16.4 -5.27,20.21 -1.33,2.8 -2.83,5.04 -4.29,7.2 -0.56,0.84 -1.12,1.67 -1.65,2.51l36.2 21.27c0.19,-0.05 0.74,-0.41 1.33,-0.79l0.01 -0.01c0.38,-0.25 0.76,-0.5 1.15,-0.72 3.9,-2.23 8.08,-4.73 12.37,-7.28 7.25,-4.33 14.82,-8.85 20.59,-11.89 0.86,-5.25 0.72,-10.3 -0.08,-15.1 -0.87,-5.21 -2.52,-10.17 -4.51,-14.83 -1.89,-4.42 -3.88,-8.9 -5.94,-13.33 -2.07,-4.46 -4.18,-8.79 -6.29,-12.83 -0.66,-1.28 -0.17,-2.85 1.1,-3.51 0.81,-0.43 1.75,-0.38 2.49,0.04 3.28,1.87 12.64,9.05 20.98,16.04 6.86,5.74 13.13,11.44 14.99,14.14 1.44,2.1 3.42,5.18 5.07,8.29 0.65,1.22 1.25,2.45 1.75,3.64l32.94 -18.91 0.07 -40.14c-2.66,-2.23 -6.23,-4.36 -10.04,-6.14 -4.45,-2.09 -9.2,-3.67 -13.18,-4.36 -8.22,-1.42 -16.54,-1.99 -24.91,-2.57 -3.19,-0.22 -6.41,-0.45 -9.27,-0.68 -1.44,-0.12 -2.51,-1.38 -2.39,-2.82 0.07,-0.85 0.54,-1.57 1.22,-1.99 3.43,-2.35 21.7,-9.19 26.57,-11.02l0.96 -0.37c1.98,-0.75 4.51,-1.67 7.14,-2.52 2.66,-0.85 5.4,-1.6 7.75,-1.98 4.35,-0.71 8.05,-0.43 11.66,-0.16 1.51,0.12 3.01,0.23 4.49,0.26l0 -39.37 -26.11 -15.41c-0.69,-0.4 -1.34,-0.81 -2.01,-1.23 -1.15,-0.74 -2.38,-1.51 -3.05,-1.8 -1.12,-0.47 -6.3,2.75 -8.71,4.25l-0.91 0.56c-9.37,5.72 -15.37,14.39 -21.51,23.27l-2.58 3.71c-0.73,1.04 -1.3,1.88 -1.77,2.59l-1.58 2.49 -3.23 4.59c-0.24,0.32 -0.46,0.54 -0.73,0.84l-0.59 0.52c-1.1,0.93 -2.75,0.79 -3.67,-0.31 -0.47,-0.55 -0.67,-1.23 -0.61,-1.9 0.27,-5.93 1.72,-17.79 3.82,-28.51 1.58,-8.08 3.54,-15.61 5.7,-19.74 2.17,-4.18 3.57,-6.07 5.03,-8.05l1.11 -1.52 -36.61 -21.59c-0.48,-0.08 -2.62,1.27 -4.78,2.62 -0.89,0.56 -1.78,1.13 -2.67,1.63 -1.48,0.85 -3.19,1.85 -4.89,2.86 -1.58,0.93 -3.16,1.86 -5.04,2.93l-18.52 10.88zm13.58 76.21c4.53,-5.86 11.33,-9.78 18.74,-10.78l0.26 -0.04c7.99,-1 15.26,1.51 20.76,6.01 5.48,4.47 9.21,10.94 10.14,17.85l0.03 0.24c1.03,8.19 -1.46,15.58 -5.96,21.15 -4.44,5.48 -10.87,9.19 -17.83,10.14l-0.39 0.06c-8.13,0.99 -15.49,-1.5 -21.03,-5.99 -5.48,-4.43 -9.19,-10.86 -10.14,-17.82l-0.06 -0.39c-0.97,-7.94 1.29,-15 5.48,-20.43zm20.32 1.95c-7.06,0.94 -11.1,5.33 -12.46,10.46 -0.55,2.07 -0.68,4.27 -0.41,6.4 0.28,2.13 0.95,4.22 2.01,6.1l0.09 0.17c2.63,4.53 7.64,7.67 14.7,6.8l0.01 0c3.78,-0.48 7.28,-2.52 9.71,-5.54 2.43,-3.02 3.78,-7.04 3.23,-11.44l-0.01 -0.17c-0.51,-3.69 -2.55,-7.14 -5.54,-9.56l-0.12 -0.1c-2.97,-2.35 -6.85,-3.66 -11.05,-3.14l-0.16 0.02z"/>
  <path class="fil1" d="M304.07 193.6c-4.89,0 -9.45,-0.4 -13.7,-1.2 -4.26,-0.81 -8.2,-2.01 -11.81,-3.61 -3.62,-1.6 -6.89,-3.49 -9.81,-5.67 -2.93,-2.18 -5.51,-4.65 -7.74,-7.43 -0.14,-0.17 -0.13,-0.42 0.02,-0.58l14.4 -15.86c0.16,-0.19 0.45,-0.2 0.63,-0.03l0.06 0.06c2.06,2.28 4.24,4.26 6.51,5.95 2.27,1.69 4.65,3.08 7.13,4.17 2.48,1.09 4.99,1.91 7.51,2.45 2.52,0.55 5.06,0.82 7.62,0.82 2.94,0 5.52,-0.32 7.74,-0.98 2.2,-0.64 4.05,-1.61 5.54,-2.91 1.49,-1.29 2.61,-2.86 3.36,-4.71 0.75,-1.87 1.12,-4.03 1.12,-6.48 0,-2 -0.28,-3.76 -0.86,-5.26 -0.56,-1.49 -1.41,-2.75 -2.54,-3.76 -1.15,-1.01 -2.71,-1.89 -4.67,-2.63 -1.96,-0.73 -4.34,-1.32 -7.11,-1.76l-12.08 -1.98c-5.24,-0.9 -9.75,-2.31 -13.54,-4.25 -3.81,-1.95 -6.9,-4.42 -9.26,-7.43l-0.01 -0.02c-2.34,-2.97 -4.1,-6.28 -5.27,-9.92 -1.18,-3.64 -1.77,-7.61 -1.77,-11.91 0,-5.62 0.93,-10.62 2.77,-14.98 1.85,-4.38 4.63,-8.12 8.32,-11.21l0.03 -0.03c3.68,-3.09 8.1,-5.41 13.25,-6.95 5.14,-1.54 11.02,-2.32 17.63,-2.32 4.5,0 8.7,0.35 12.62,1.04 3.92,0.69 7.55,1.73 10.89,3.11 3.34,1.38 6.36,3.01 9.06,4.88 2.71,1.88 5.1,4.01 7.17,6.39 0.16,0.18 0.14,0.45 -0.03,0.61l-14.05 15.68c-0.16,0.18 -0.45,0.2 -0.63,0.03l-0.05 -0.05c-1.52,-1.68 -3.17,-3.17 -4.96,-4.49 -1.8,-1.32 -3.74,-2.46 -5.8,-3.41 -2.07,-0.95 -4.27,-1.67 -6.61,-2.14 -2.34,-0.48 -4.82,-0.72 -7.44,-0.72 -5.47,0 -9.55,1.12 -12.25,3.36 -2.68,2.22 -4.02,5.56 -4.02,10.04 0,1.96 0.3,3.67 0.89,5.11 0.59,1.43 1.48,2.62 2.66,3.57 1.21,0.98 2.81,1.84 4.8,2.58 1.99,0.74 4.38,1.36 7.17,1.85l12.08 2.15c4.73,0.83 8.92,2.14 12.57,3.92 3.66,1.79 6.79,4.05 9.37,6.78 2.58,2.75 4.52,5.98 5.81,9.68 1.28,3.69 1.93,7.85 1.93,12.48 0,2.72 -0.24,5.34 -0.72,7.86 -0.47,2.52 -1.19,4.94 -2.13,7.26 -0.96,2.33 -2.15,4.5 -3.58,6.51 -1.42,2.01 -3.09,3.86 -4.98,5.55l-0.02 0.02c-3.8,3.39 -8.45,6.04 -13.96,7.93 -2.76,0.95 -5.74,1.66 -8.96,2.13 -3.2,0.47 -6.64,0.71 -10.3,0.71zm95.51 0c-7.22,0 -13.58,-1 -19.06,-3.01 -5.51,-2.01 -10.13,-5.03 -13.88,-9.05 -3.74,-4.02 -6.55,-8.77 -8.41,-14.23 -1.87,-5.46 -2.8,-11.63 -2.8,-18.52 0,-3.5 0.24,-6.83 0.73,-9.98l0 -0.01c0.48,-3.15 1.22,-6.13 2.19,-8.95 0.98,-2.81 2.16,-5.42 3.56,-7.81 1.39,-2.4 3,-4.6 4.81,-6.58 1.82,-1.98 3.83,-3.73 6.04,-5.24 2.2,-1.51 4.61,-2.78 7.2,-3.81 2.6,-1.04 5.36,-1.81 8.27,-2.33 2.9,-0.51 5.98,-0.77 9.2,-0.77 3.22,0 6.29,0.26 9.18,0.77 2.9,0.52 5.63,1.3 8.2,2.33 2.57,1.03 4.94,2.28 7.12,3.74 2.18,1.47 4.17,3.16 5.95,5.06 1.79,1.9 3.38,4 4.76,6.3 1.38,2.3 2.56,4.8 3.53,7.51 0.98,2.7 1.71,5.57 2.2,8.59 0.48,3.02 0.73,6.19 0.73,9.52l0 7.29c0,0.24 -0.2,0.45 -0.45,0.45l-57.99 0 0 1.04c0,2.7 0.42,5.14 1.25,7.3 0.84,2.16 2.09,4.07 3.75,5.7 1.66,1.64 3.71,2.86 6.16,3.68 2.46,0.83 5.32,1.24 8.59,1.24 2.51,0 4.84,-0.24 6.98,-0.71 2.14,-0.48 4.1,-1.19 5.89,-2.13 1.79,-0.95 3.46,-2.06 5.01,-3.33 1.55,-1.26 2.98,-2.68 4.29,-4.26 0.15,-0.19 0.44,-0.22 0.63,-0.06l13.28 14.44c0.16,0.17 0.16,0.42 0.02,0.59 -1.67,2.07 -3.69,4 -6.03,5.79 -2.34,1.78 -5.01,3.42 -8.02,4.92 -3.02,1.51 -6.44,2.65 -10.25,3.4 -3.81,0.75 -8.02,1.12 -12.63,1.12zm-1.98 -71.84c-2.6,0 -4.93,0.4 -6.98,1.19 -2.05,0.79 -3.84,1.97 -5.37,3.55 -1.52,1.59 -2.67,3.45 -3.44,5.58 -0.76,2.13 -1.15,4.56 -1.15,7.27l0 0.88 33.53 0 0 -0.88c0,-2.76 -0.37,-5.22 -1.11,-7.38 -0.74,-2.15 -1.84,-4 -3.31,-5.55 -1.47,-1.55 -3.22,-2.72 -5.24,-3.49 -2.03,-0.78 -4.34,-1.17 -6.93,-1.17zm45.9 69.41l0 -85.42c0,-0.25 0.2,-0.45 0.45,-0.45l19.69 0c0.25,0 0.45,0.2 0.45,0.45l0 12.13 0.39 0c0.65,-1.9 1.44,-3.67 2.35,-5.31 0.97,-1.74 2.08,-3.34 3.34,-4.8 1.29,-1.48 2.85,-2.6 4.66,-3.35 1.81,-0.74 3.88,-1.11 6.19,-1.11 8.42,0 13.62,4.86 15.6,14.57l0.31 0c0.31,-0.91 0.65,-1.78 1.02,-2.63 0.43,-0.95 0.89,-1.88 1.39,-2.77 0.5,-0.9 1.07,-1.75 1.69,-2.54 0.62,-0.79 1.3,-1.53 2.04,-2.2 0.73,-0.68 1.55,-1.3 2.43,-1.84 0.87,-0.53 1.82,-1 2.84,-1.4 2.04,-0.79 4.42,-1.19 7.12,-1.19 12.21,0 18.32,8.93 18.32,26.77l0 61.09c0,0.24 -0.2,0.45 -0.45,0.45l-19.7 0c-0.24,0 -0.45,-0.21 -0.45,-0.45l0 -58.61c0,-1.95 -0.16,-3.6 -0.5,-4.96 -0.33,-1.32 -0.81,-2.36 -1.45,-3.1 -0.65,-0.75 -1.39,-1.31 -2.23,-1.69 -0.83,-0.37 -1.77,-0.56 -2.81,-0.56 -1.98,0 -3.68,0.66 -5.08,1.95 -0.69,0.64 -1.21,1.46 -1.56,2.45 -0.35,1.01 -0.53,2.21 -0.53,3.6l0 60.92c0,0.24 -0.2,0.45 -0.45,0.45l-19.86 0c-0.25,0 -0.45,-0.21 -0.45,-0.45l0 -58.61c0,-1.95 -0.16,-3.61 -0.47,-4.97 -0.3,-1.32 -0.75,-2.36 -1.34,-3.1l-0.02 -0.03c-0.58,-0.73 -1.28,-1.28 -2.07,-1.65 -0.81,-0.37 -1.73,-0.56 -2.77,-0.56 -2.09,0 -3.87,0.66 -5.33,1.96 -0.71,0.64 -1.26,1.45 -1.61,2.44 -0.37,1.01 -0.56,2.21 -0.56,3.6l0 60.92c0,0.24 -0.2,0.45 -0.45,0.45l-19.69 0c-0.25,0 -0.45,-0.21 -0.45,-0.45zm167.47 0.45c-5.18,0 -9.36,-1.34 -12.54,-4 -1.59,-1.34 -2.86,-2.97 -3.79,-4.89l-0.02 -0.03c-0.87,-1.79 -1.46,-3.85 -1.76,-6.15l-0.09 0c-0.79,2.73 -1.93,5.14 -3.43,7.22 -1.56,2.17 -3.52,3.99 -5.86,5.46 -2.33,1.46 -4.92,2.56 -7.76,3.28 -2.84,0.73 -5.93,1.09 -9.28,1.09 -8.39,0 -15.14,-2.27 -20.24,-6.82 -2.57,-2.28 -4.49,-5.02 -5.77,-8.21 -1.28,-3.19 -1.92,-6.83 -1.92,-10.91 0,-4.54 0.83,-8.49 2.49,-11.87 1.66,-3.38 4.16,-6.17 7.48,-8.37 3.3,-2.18 7.37,-3.82 12.19,-4.9 4.81,-1.09 10.38,-1.63 16.7,-1.63l13.29 0 0 -3.85c0,-2.5 -0.29,-4.69 -0.87,-6.56 -0.57,-1.85 -1.43,-3.4 -2.57,-4.65 -2.29,-2.49 -6.18,-3.74 -11.67,-3.74 -5.11,0 -9.22,0.97 -12.35,2.91 -1.57,0.98 -3.04,2.11 -4.4,3.38 -1.35,1.28 -2.61,2.7 -3.75,4.28 -0.14,0.2 -0.42,0.25 -0.62,0.1l-13.45 -11.94c-0.17,-0.15 -0.2,-0.41 -0.07,-0.59 1.45,-2.46 3.32,-4.7 5.6,-6.73 2.27,-2.02 4.96,-3.83 8.06,-5.42 3.1,-1.59 6.64,-2.79 10.6,-3.58 3.96,-0.79 8.36,-1.19 13.19,-1.19 5.89,0 11.14,0.68 15.75,2.03 4.62,1.35 8.6,3.39 11.93,6.1 3.34,2.73 5.85,6.15 7.52,10.26 1.66,4.09 2.5,8.88 2.5,14.34l0 36.96 8.98 0c0.25,0 0.45,0.21 0.45,0.45l0 17.72c0,0.24 -0.2,0.45 -0.45,0.45l-14.07 0zm-35.26 -14.98c2.11,0 4.06,-0.25 5.84,-0.76l0.03 -0.01c1.75,-0.51 3.36,-1.27 4.8,-2.29 1.43,-1 2.5,-2.23 3.21,-3.68 0.71,-1.45 1.07,-3.14 1.07,-5.05l0 -9.82 -12.63 0c-4.93,0 -8.62,0.82 -11.05,2.45 -2.37,1.59 -3.57,3.99 -3.57,7.2l0 3.31c0,1.42 0.28,2.66 0.82,3.73 0.55,1.06 1.37,1.95 2.46,2.68 2.24,1.5 5.25,2.24 9.02,2.24zm56.33 14.53l0 -85.42c0,-0.25 0.2,-0.45 0.45,-0.45l24.5 0c0.25,0 0.45,0.2 0.45,0.45l0 15.11 0.24 0c0.48,-1.14 1,-2.23 1.56,-3.28 0.62,-1.14 1.29,-2.25 2.01,-3.31 0.73,-1.07 1.54,-2.07 2.43,-3.01 0.88,-0.94 1.84,-1.82 2.88,-2.64 1.04,-0.81 2.17,-1.54 3.38,-2.19 1.2,-0.65 2.5,-1.21 3.87,-1.68 1.38,-0.48 2.85,-0.84 4.4,-1.08 1.56,-0.24 3.2,-0.36 4.93,-0.36 4.14,0 7.95,0.7 11.43,2.1 1.74,0.71 3.36,1.59 4.85,2.64l0.02 0.02c1.49,1.05 2.85,2.28 4.07,3.67 1.23,1.4 2.33,2.96 3.3,4.67 0.97,1.71 1.8,3.57 2.5,5.58 0.7,2.01 1.23,4.18 1.57,6.49 0.35,2.31 0.52,4.78 0.52,7.4l0 55.29c0,0.24 -0.2,0.45 -0.45,0.45l-24.49 0c-0.25,0 -0.45,-0.21 -0.45,-0.45l0 -51.98c0,-5.41 -1.17,-9.45 -3.49,-12.12 -2.31,-2.66 -5.8,-3.99 -10.47,-3.99 -0.92,0 -1.83,0.06 -2.73,0.18 -0.91,0.13 -1.81,0.31 -2.69,0.55 -0.89,0.24 -1.73,0.55 -2.52,0.93 -0.78,0.37 -1.53,0.81 -2.22,1.32l-0.03 0.02c-0.67,0.49 -1.28,1.05 -1.82,1.67l-0.02 0.02c-0.53,0.61 -1,1.29 -1.39,2.03 -0.4,0.73 -0.69,1.54 -0.89,2.41 -0.2,0.87 -0.3,1.82 -0.3,2.84l0 56.12c0,0.24 -0.2,0.45 -0.45,0.45l-24.5 0c-0.25,0 -0.45,-0.21 -0.45,-0.45zm137.35 0.45c-4.46,0 -8.36,-0.59 -11.69,-1.76 -3.35,-1.18 -6.14,-2.96 -8.34,-5.31 -2.19,-2.36 -3.84,-5.05 -4.93,-8.05 -1.1,-2.99 -1.65,-6.31 -1.65,-9.94l0 -41.16 -22.72 0c-0.25,0 -0.45,-0.2 -0.45,-0.45l0 -19.2c0,-0.25 0.2,-0.45 0.45,-0.45l15.06 0c1.79,0 3.31,-0.18 4.56,-0.52 1.23,-0.34 2.2,-0.85 2.92,-1.51 0.71,-0.66 1.25,-1.62 1.61,-2.86 0.37,-1.28 0.56,-2.87 0.56,-4.76l0 -20.03c0,-0.25 0.2,-0.45 0.45,-0.45l22.51 0c0.25,0 0.45,0.2 0.45,0.45l0 29.68 32.83 0c0.25,0 0.45,0.2 0.45,0.45l0 19.2c0,0.25 -0.2,0.45 -0.45,0.45l-32.83 0 0 46.11 32.83 0c0.25,0 0.45,0.2 0.45,0.45l0 19.21c0,0.24 -0.2,0.45 -0.45,0.45l-31.62 0zm90.05 -96.35c-2.8,0 -5.18,-0.29 -7.14,-0.86 -1.99,-0.59 -3.56,-1.48 -4.69,-2.67 -1.12,-1.17 -1.95,-2.47 -2.51,-3.89 -0.56,-1.42 -0.84,-2.96 -0.84,-4.61l0 -4.81c0,-3.43 1.12,-6.29 3.35,-8.59 1.14,-1.16 2.7,-2.02 4.69,-2.6 1.96,-0.56 4.34,-0.84 7.14,-0.84 2.8,0 5.18,0.28 7.14,0.84 1.99,0.58 3.56,1.44 4.69,2.6 2.23,2.3 3.35,5.16 3.35,8.59l0 4.81c0,3.31 -1.11,6.15 -3.35,8.5 -1.13,1.19 -2.69,2.08 -4.69,2.67 -1.96,0.57 -4.34,0.86 -7.14,0.86zm-39.4 76.24l26.7 0 0 -46.11 -26.7 0c-0.25,0 -0.45,-0.2 -0.45,-0.45l0 -19.2c0,-0.25 0.2,-0.45 0.45,-0.45l51.65 0c0.25,0 0.45,0.2 0.45,0.45l0 65.76 24.71 0c0.25,0 0.45,0.2 0.45,0.45l0 19.21c0,0.24 -0.2,0.45 -0.45,0.45l-76.81 0c-0.25,0 -0.45,-0.21 -0.45,-0.45l0 -19.21c0,-0.25 0.2,-0.45 0.45,-0.45zm128.96 22.09c-3.39,0 -6.61,-0.26 -9.66,-0.77 -3.05,-0.52 -5.93,-1.29 -8.63,-2.32 -2.7,-1.03 -5.2,-2.3 -7.49,-3.79 -2.29,-1.5 -4.38,-3.22 -6.25,-5.18 -1.87,-1.95 -3.52,-4.11 -4.96,-6.49 -1.44,-2.37 -2.66,-4.95 -3.66,-7.74 -1,-2.78 -1.76,-5.75 -2.26,-8.89 -0.5,-3.15 -0.75,-6.47 -0.75,-9.96 0,-7 1,-13.29 3.01,-18.86 2.01,-5.58 4.88,-10.32 8.62,-14.23 1.87,-1.95 3.96,-3.68 6.25,-5.18 2.29,-1.49 4.79,-2.76 7.49,-3.79 2.7,-1.03 5.57,-1.8 8.59,-2.32 3.02,-0.51 6.2,-0.77 9.53,-0.77 4.72,0 8.99,0.48 12.79,1.44 3.82,0.97 7.17,2.42 10.06,4.35 2.87,1.93 5.41,4.17 7.6,6.72 2.19,2.56 4.04,5.43 5.55,8.61 0.1,0.22 0.01,0.49 -0.22,0.6l-18.84 10.25c-0.22,0.11 -0.5,0.03 -0.61,-0.18l-0.02 -0.03c-0.76,-1.63 -1.63,-3.12 -2.62,-4.48 -0.99,-1.35 -2.09,-2.57 -3.31,-3.65 -1.19,-1.06 -2.65,-1.86 -4.37,-2.39 -1.73,-0.54 -3.73,-0.8 -6.01,-0.8 -5.5,0 -9.72,1.58 -12.67,4.73 -1.47,1.58 -2.58,3.46 -3.31,5.62 -0.74,2.17 -1.12,4.64 -1.12,7.4l0 13.91c0,2.76 0.38,5.24 1.12,7.41 0.73,2.16 1.84,4.03 3.31,5.61 1.47,1.57 3.29,2.76 5.44,3.55 2.17,0.79 4.69,1.19 7.56,1.19 2.33,0 4.41,-0.27 6.23,-0.81 1.8,-0.53 3.36,-1.34 4.66,-2.4 1.33,-1.08 2.55,-2.33 3.68,-3.74 1.13,-1.41 2.15,-2.99 3.08,-4.73 0.11,-0.22 0.39,-0.3 0.61,-0.19l18.55 10.6c0.21,0.12 0.28,0.39 0.18,0.6 -1.57,3.18 -3.49,6.05 -5.76,8.6 -2.27,2.55 -4.91,4.79 -7.89,6.72 -3,1.93 -6.46,3.38 -10.38,4.34 -3.92,0.96 -8.29,1.44 -13.12,1.44zm112.06 -1.98l-24.49 0c-0.25,0 -0.45,-0.21 -0.45,-0.45l0 -115.55c0,-0.25 0.2,-0.45 0.45,-0.45l44.69 0c5.68,0 10.76,0.87 15.23,2.6 2.23,0.86 4.3,1.92 6.18,3.17 1.89,1.24 3.61,2.68 5.15,4.3 1.54,1.63 2.89,3.42 4.06,5.38 1.16,1.96 2.13,4.09 2.91,6.38 1.56,4.57 2.34,9.69 2.34,15.37 0,8.25 -1.78,15.33 -5.36,21.25 -1.79,2.97 -3.97,5.45 -6.52,7.41 -2.43,1.86 -5.19,3.27 -8.29,4.23l22.44 45.71c0.11,0.22 0.02,0.49 -0.2,0.6 -0.06,0.03 -0.13,0.04 -0.2,0.04l-27.15 0.01c-0.19,0 -0.35,-0.12 -0.42,-0.29l-19.23 -42.59 -10.69 0 0 42.43c0,0.24 -0.2,0.45 -0.45,0.45zm14.24 -62.98c2.88,0 5.32,-0.27 7.31,-0.81 1.95,-0.54 3.47,-1.33 4.54,-2.37 1.08,-1.05 1.89,-2.45 2.43,-4.2 0.55,-1.78 0.83,-3.91 0.83,-6.41l0 -4.96c0,-2.5 -0.28,-4.63 -0.83,-6.41 -0.54,-1.75 -1.35,-3.15 -2.43,-4.2 -1.07,-1.04 -2.59,-1.84 -4.54,-2.37 -1.99,-0.54 -4.43,-0.81 -7.31,-0.81l-13.79 0 0 32.54 13.79 0zm92.04 64.96c-7.22,0 -13.58,-1 -19.07,-3.01 -5.5,-2.01 -10.13,-5.03 -13.87,-9.05 -3.74,-4.02 -6.55,-8.77 -8.41,-14.23 -1.87,-5.46 -2.8,-11.63 -2.8,-18.52 0,-3.5 0.24,-6.83 0.73,-9.98 0.48,-3.15 1.21,-6.14 2.19,-8.96 0.98,-2.81 2.16,-5.42 3.55,-7.81 1.4,-2.4 3,-4.6 4.82,-6.58 1.82,-1.98 3.83,-3.73 6.04,-5.24 2.2,-1.51 4.61,-2.78 7.2,-3.81 2.6,-1.04 5.35,-1.81 8.26,-2.33 2.91,-0.51 5.98,-0.77 9.21,-0.77 3.22,0 6.28,0.26 9.18,0.77 2.9,0.52 5.63,1.3 8.2,2.33 2.56,1.03 4.94,2.28 7.12,3.74 2.18,1.47 4.16,3.16 5.95,5.06 1.79,1.9 3.37,4 4.76,6.3 1.37,2.3 2.55,4.8 3.53,7.51 0.98,2.7 1.71,5.57 2.19,8.59 0.49,3.02 0.74,6.2 0.74,9.52l0 7.29c0,0.24 -0.21,0.45 -0.45,0.45l-57.99 0 0 1.04c0,2.7 0.42,5.14 1.25,7.3 0.83,2.16 2.08,4.07 3.75,5.7 1.66,1.64 3.71,2.86 6.16,3.68 2.46,0.83 5.32,1.24 8.59,1.24 2.5,0 4.83,-0.24 6.98,-0.71 2.14,-0.48 4.1,-1.19 5.88,-2.13 1.79,-0.95 3.47,-2.06 5.02,-3.33 1.55,-1.26 2.98,-2.68 4.28,-4.26 0.16,-0.19 0.45,-0.22 0.64,-0.06l13.28 14.44c0.15,0.17 0.16,0.42 0.02,0.59 -1.68,2.07 -3.69,4 -6.03,5.79 -2.34,1.78 -5.02,3.42 -8.02,4.92 -3.02,1.51 -6.44,2.65 -10.26,3.4 -3.8,0.75 -8.01,1.12 -12.62,1.12zm-1.99 -71.84c-2.59,0 -4.92,0.4 -6.97,1.19 -2.05,0.79 -3.84,1.97 -5.37,3.55 -1.53,1.58 -2.67,3.44 -3.44,5.58 -0.76,2.13 -1.15,4.56 -1.15,7.27l0 0.88 33.53 0 0 -0.88c0,-2.76 -0.37,-5.22 -1.11,-7.38 -0.74,-2.15 -1.84,-4 -3.31,-5.55 -1.48,-1.55 -3.22,-2.72 -5.24,-3.49 -2.03,-0.78 -4.34,-1.17 -6.94,-1.17zm52.64 49.75l25.71 0 0 -83.19 -25.71 0c-0.25,0 -0.45,-0.2 -0.45,-0.45l0 -19.2c0,-0.25 0.2,-0.45 0.45,-0.45l50.66 0c0.25,0 0.45,0.2 0.45,0.45l0 102.84 25.7 0c0.25,0 0.45,0.2 0.45,0.45l0 19.21c0,0.24 -0.2,0.45 -0.45,0.45l-76.81 0c-0.25,0 -0.45,-0.21 -0.45,-0.45l0 -19.21c0,-0.25 0.2,-0.45 0.45,-0.45zm132.1 22.09c-7.22,0 -13.58,-1 -19.06,-3.01 -5.51,-2.01 -10.13,-5.03 -13.88,-9.05 -3.74,-4.02 -6.54,-8.77 -8.41,-14.23 -1.87,-5.46 -2.8,-11.63 -2.8,-18.52 0,-3.5 0.24,-6.83 0.73,-9.98 0.48,-3.15 1.22,-6.14 2.19,-8.96 0.98,-2.81 2.16,-5.42 3.56,-7.81 1.39,-2.4 3,-4.6 4.81,-6.58 1.82,-1.98 3.83,-3.73 6.04,-5.24 2.21,-1.51 4.61,-2.78 7.2,-3.81 2.6,-1.04 5.36,-1.81 8.27,-2.33 2.9,-0.51 5.98,-0.77 9.2,-0.77 3.22,0 6.29,0.26 9.18,0.77 2.9,0.52 5.63,1.3 8.2,2.33 2.57,1.03 4.94,2.28 7.12,3.74 2.18,1.47 4.17,3.16 5.95,5.06 1.79,1.9 3.38,4 4.76,6.3 1.38,2.3 2.56,4.8 3.53,7.51 0.98,2.7 1.71,5.57 2.2,8.59 0.48,3.02 0.73,6.2 0.73,9.52l0 7.29c0,0.24 -0.2,0.45 -0.45,0.45l-57.99 0 0 1.04c0,2.7 0.42,5.14 1.25,7.3 0.84,2.16 2.09,4.07 3.75,5.7 1.66,1.64 3.72,2.86 6.16,3.68 2.46,0.83 5.32,1.24 8.59,1.24 2.51,0 4.84,-0.24 6.98,-0.71 2.14,-0.48 4.1,-1.19 5.89,-2.13 1.79,-0.95 3.46,-2.06 5.01,-3.33 1.55,-1.26 2.98,-2.68 4.29,-4.26 0.15,-0.19 0.44,-0.22 0.63,-0.06l13.28 14.44c0.16,0.17 0.16,0.42 0.02,0.59 -1.67,2.07 -3.69,4 -6.03,5.79 -2.34,1.78 -5.01,3.42 -8.02,4.92 -3.02,1.51 -6.44,2.65 -10.25,3.4 -3.81,0.75 -8.02,1.12 -12.63,1.12zm-1.98 -71.84c-2.6,0 -4.93,0.4 -6.98,1.19 -2.05,0.79 -3.84,1.97 -5.37,3.55 -1.52,1.58 -2.67,3.44 -3.44,5.58 -0.76,2.13 -1.15,4.56 -1.15,7.27l0 0.88 33.53 0 0 -0.88c0,-2.76 -0.37,-5.22 -1.11,-7.38 -0.74,-2.15 -1.84,-4 -3.31,-5.55 -1.47,-1.55 -3.22,-2.72 -5.24,-3.49 -2.03,-0.78 -4.34,-1.17 -6.93,-1.17zm121.99 69.86c-5.18,0 -9.36,-1.34 -12.53,-4 -1.6,-1.34 -2.86,-2.97 -3.8,-4.89l-0.01 -0.03c-0.88,-1.79 -1.47,-3.85 -1.77,-6.15l-0.09 0c-0.78,2.73 -1.93,5.14 -3.43,7.22 -1.56,2.17 -3.52,3.99 -5.86,5.46 -2.33,1.46 -4.92,2.56 -7.76,3.28 -2.83,0.73 -5.93,1.09 -9.27,1.09 -8.39,0 -15.14,-2.27 -20.25,-6.82 -2.56,-2.28 -4.49,-5.02 -5.77,-8.21 -1.27,-3.19 -1.91,-6.83 -1.91,-10.91 0,-4.54 0.83,-8.49 2.49,-11.87 1.66,-3.38 4.15,-6.17 7.47,-8.37 3.31,-2.18 7.37,-3.82 12.2,-4.9 4.8,-1.09 10.37,-1.63 16.69,-1.63l13.29 0 0 -3.85c0,-2.5 -0.29,-4.69 -0.87,-6.56 -0.57,-1.85 -1.43,-3.4 -2.57,-4.65 -2.28,-2.49 -6.17,-3.74 -11.67,-3.74 -5.1,0 -9.22,0.97 -12.34,2.91 -1.58,0.98 -3.05,2.11 -4.4,3.38 -1.36,1.28 -2.61,2.7 -3.75,4.28 -0.15,0.2 -0.43,0.25 -0.63,0.1l-13.45 -11.94c-0.16,-0.15 -0.19,-0.41 -0.07,-0.59 1.46,-2.46 3.33,-4.7 5.6,-6.73 2.27,-2.02 4.96,-3.83 8.06,-5.42 3.1,-1.59 6.64,-2.79 10.61,-3.58 3.96,-0.79 8.36,-1.19 13.18,-1.19 5.89,0 11.14,0.68 15.75,2.03 4.63,1.35 8.6,3.39 11.93,6.1 3.35,2.73 5.86,6.15 7.53,10.26 1.66,4.09 2.49,8.88 2.49,14.34l0 36.96 8.99 0c0.24,0 0.45,0.21 0.45,0.45l0 17.72c0,0.24 -0.21,0.45 -0.45,0.45l-14.08 0zm-35.25 -14.98c2.11,0 4.05,-0.25 5.83,-0.76l0.03 -0.01c1.76,-0.51 3.36,-1.27 4.8,-2.29 1.43,-1 2.5,-2.23 3.21,-3.68 0.71,-1.45 1.07,-3.14 1.07,-5.05l0 -9.82 -12.63 0c-4.93,0 -8.61,0.82 -11.05,2.45 -2.37,1.59 -3.56,3.99 -3.56,7.2l0 3.31c0,1.42 0.27,2.66 0.82,3.73 0.54,1.06 1.36,1.95 2.46,2.68 2.24,1.5 5.24,2.24 9.02,2.24zm94.68 16.96c-4.76,0 -9.23,-0.36 -13.38,-1.08 -4.15,-0.72 -8,-1.81 -11.54,-3.26 -3.53,-1.45 -6.64,-3.16 -9.3,-5.14 -2.67,-1.99 -4.91,-4.25 -6.7,-6.77 -0.13,-0.19 -0.1,-0.45 0.07,-0.59l13.73 -12.74c0.18,-0.17 0.46,-0.16 0.63,0.02 1.64,1.8 3.42,3.41 5.34,4.81l0.03 0.02c1.91,1.39 3.97,2.59 6.16,3.6 2.2,1 4.56,1.76 7.08,2.26 2.52,0.5 5.21,0.76 8.05,0.76 2.4,0 4.54,-0.19 6.41,-0.55 1.86,-0.37 3.46,-0.91 4.8,-1.63 1.3,-0.71 2.28,-1.6 2.93,-2.67 0.64,-1.08 0.97,-2.35 0.97,-3.81 0,-1.14 -0.22,-2.09 -0.65,-2.86 -0.42,-0.76 -1.06,-1.36 -1.92,-1.79 -0.9,-0.45 -2,-0.86 -3.27,-1.23 -1.28,-0.36 -2.74,-0.69 -4.38,-0.96l-13.73 -2.15c-1.95,-0.28 -3.83,-0.63 -5.63,-1.06l-0.04 -0.01c-1.8,-0.43 -3.52,-0.94 -5.17,-1.52 -1.68,-0.58 -3.25,-1.28 -4.71,-2.07 -1.46,-0.81 -2.81,-1.71 -4.04,-2.72 -1.23,-1.01 -2.35,-2.14 -3.33,-3.38 -0.99,-1.23 -1.84,-2.58 -2.58,-4.05 -0.73,-1.47 -1.28,-3.1 -1.65,-4.87 -0.37,-1.77 -0.55,-3.69 -0.55,-5.76 0,-4.54 0.87,-8.59 2.61,-12.16 1.74,-3.56 4.36,-6.64 7.84,-9.22 6.92,-5.14 16.61,-7.71 29.07,-7.71 4.21,0 8.12,0.29 11.72,0.86 3.6,0.57 6.9,1.42 9.87,2.57 2.99,1.14 5.68,2.53 8.06,4.16 2.39,1.64 4.49,3.52 6.28,5.65 0.14,0.17 0.14,0.42 -0.01,0.59l-12.24 13.9c-0.17,0.19 -0.45,0.21 -0.64,0.04l-0.05 -0.05c-1.24,-1.35 -2.67,-2.59 -4.26,-3.73 -1.6,-1.14 -3.39,-2.18 -5.35,-3.1 -1.95,-0.92 -4.11,-1.62 -6.47,-2.08 -2.37,-0.46 -4.96,-0.69 -7.74,-0.69 -4.66,0 -8.15,0.69 -10.45,2.09 -2.22,1.34 -3.34,3.36 -3.34,6.07 0,1.19 0.22,2.19 0.65,2.99 0.43,0.79 1.07,1.39 1.92,1.82 0.91,0.45 2,0.86 3.27,1.23 1.28,0.37 2.75,0.69 4.38,0.96l13.57 2.15c1.94,0.28 3.82,0.64 5.62,1.06 1.8,0.43 3.54,0.94 5.22,1.53 3.36,1.17 6.3,2.77 8.82,4.79 1.27,1.01 2.41,2.14 3.4,3.38 1,1.24 1.87,2.59 2.6,4.05 0.73,1.47 1.29,3.1 1.65,4.87 0.37,1.78 0.55,3.7 0.55,5.76 0,4.54 -0.88,8.61 -2.63,12.2 -1.76,3.6 -4.39,6.71 -7.9,9.35 -3.49,2.63 -7.72,4.6 -12.67,5.91 -4.93,1.31 -10.6,1.96 -16.98,1.96zm94.69 0c-7.22,0 -13.58,-1 -19.07,-3.01 -5.5,-2.01 -10.13,-5.03 -13.87,-9.05 -3.74,-4.02 -6.55,-8.77 -8.41,-14.23 -1.87,-5.46 -2.8,-11.63 -2.8,-18.52 0,-3.5 0.24,-6.83 0.73,-9.98 0.48,-3.15 1.21,-6.14 2.19,-8.96 0.98,-2.81 2.16,-5.42 3.55,-7.81 1.4,-2.4 3.01,-4.6 4.82,-6.58 1.82,-1.98 3.83,-3.73 6.04,-5.24 2.2,-1.51 4.61,-2.78 7.2,-3.81 2.6,-1.04 5.35,-1.81 8.26,-2.33 2.91,-0.51 5.98,-0.77 9.21,-0.77 3.22,0 6.28,0.26 9.18,0.77 2.9,0.52 5.63,1.3 8.2,2.33 2.56,1.03 4.94,2.28 7.12,3.74 2.18,1.47 4.16,3.16 5.95,5.06 1.79,1.9 3.37,4 4.76,6.3 1.37,2.3 2.55,4.8 3.53,7.51 0.98,2.7 1.71,5.57 2.2,8.59 0.48,3.02 0.73,6.2 0.73,9.52l0 7.29c0,0.24 -0.21,0.45 -0.45,0.45l-57.99 0 0 1.04c0,2.7 0.42,5.14 1.25,7.3 0.83,2.16 2.08,4.07 3.75,5.7 1.66,1.64 3.72,2.86 6.16,3.68 2.46,0.83 5.32,1.24 8.59,1.24 2.51,0 4.83,-0.24 6.98,-0.71 2.14,-0.48 4.1,-1.19 5.88,-2.13 1.8,-0.95 3.47,-2.06 5.02,-3.33 1.55,-1.26 2.98,-2.68 4.28,-4.26 0.16,-0.19 0.45,-0.22 0.64,-0.06l13.28 14.44c0.15,0.17 0.16,0.42 0.02,0.59 -1.68,2.07 -3.69,4 -6.03,5.79 -2.34,1.78 -5.01,3.42 -8.02,4.92 -3.02,1.51 -6.44,2.65 -10.26,3.4 -3.8,0.75 -8.01,1.12 -12.62,1.12zm-1.99 -71.84c-2.59,0 -4.92,0.4 -6.97,1.19 -2.05,0.79 -3.84,1.97 -5.37,3.55 -1.53,1.58 -2.67,3.44 -3.44,5.58 -0.76,2.13 -1.15,4.56 -1.15,7.27l0 0.88 33.53 0 0 -0.88c0,-2.76 -0.37,-5.22 -1.11,-7.38 -0.74,-2.15 -1.84,-4 -3.31,-5.55 -1.47,-1.55 -3.22,-2.72 -5.24,-3.49 -2.03,-0.78 -4.34,-1.17 -6.94,-1.17z"/>
 </g>
</svg>
