<?xml version="1.0" encoding="UTF-8"?>
<!DOCTYPE svg PUBLIC "-//W3C//DTD SVG 1.1//EN" "http://www.w3.org/Graphics/SVG/1.1/DTD/svg11.dtd">
<!-- Creator: CorelDRAW 2021 (64-Bit) -->
<svg xmlns="http://www.w3.org/2000/svg" xml:space="preserve" width="1665px" height="260px" version="1.1" style="shape-rendering:geometricPrecision; text-rendering:geometricPrecision; image-rendering:optimizeQuality; fill-rule:evenodd; clip-rule:evenodd"
viewBox="0 0 1665 260"
 xmlns:xlink="http://www.w3.org/1999/xlink"
 xmlns:xodm="http://www.corel.com/coreldraw/odm/2003">
 <defs>
  <style type="text/css">
   <![CDATA[
    .fil0 {fill:white}
    .fil1 {fill:white;fill-rule:nonzero}
   ]]>
  </style>
 </defs>
 <g id="Layer_x0020_1">
  <metadata id="CorelCorpID_0Corel-Layer"/>
  <g id="_1845412016400">
   <path class="fil0" d="M111.38 245.6l-0.78 0c-0.4,0 -0.8,-0.11 -1.17,-0.32l-97.02 -56.5c-0.69,-0.4 -1.16,-1.15 -1.16,-2.01l0.05 -113.24c-0.07,-0.87 0.35,-1.75 1.15,-2.21l96.91 -56.56c0.36,-0.23 0.79,-0.36 1.25,-0.36l0.76 0c0.4,0 0.8,0.11 1.17,0.32l97.02 56.5c0.69,0.4 1.16,1.15 1.16,2.01l-0.06 113.24c0.08,0.87 -0.34,1.75 -1.15,2.22l-96.88 56.55c-0.37,0.23 -0.79,0.36 -1.25,0.36zm-32.41 -198.84c-0.76,15.32 -0.7,16.05 5.48,30.84 1.29,3.08 2.9,6.26 4.49,9.39 1.9,3.73 3.76,7.41 5.07,10.9 0.46,1.2 -0.15,2.55 -1.35,3 -0.72,0.27 -1.48,0.16 -2.08,-0.22 -2.91,-1.87 -5.51,-3.92 -8.19,-6.03l-3.02 -2.36c-3.41,-2.61 -8.98,-7.02 -13.64,-11.21 -3.25,-2.91 -6.1,-5.77 -7.63,-7.97 -1.85,-2.68 -3.69,-6.37 -5.09,-9.19l-0.82 -1.65 -28.95 16.79 0.06 36.3c0.68,0.54 1.65,1.19 2.71,1.86l0.12 0.09c2.09,1.31 4.46,2.63 5.79,3.29 9.46,4.71 19.71,5.36 30.79,6.06 3.69,0.24 7.47,0.48 11.44,0.88 1.28,0.13 2.22,1.27 2.09,2.54 -0.08,0.78 -0.53,1.44 -1.17,1.8l-2.76 1.57 -0.35 0.16c-4.16,1.75 -10.88,4.54 -17.24,6.96 -6.66,2.53 -13.25,4.79 -17.08,5.42 -3.82,0.64 -7.08,0.4 -10.23,0.18 -1.39,-0.1 -2.75,-0.19 -4.11,-0.21l0.01 35c2.67,1.76 11.73,6.93 16.19,9.47l2.28 1.31c3.62,2.09 6.51,3.78 9.81,5.72l0.21 0.12c1.36,0.73 2.85,-0.2 6.18,-2.27l1.64 -1.01c9.64,-5.91 16.9,-17.29 22.1,-25.42 2.46,-3.85 4.49,-7.02 6.23,-8.8 0.9,-0.91 2.38,-0.93 3.3,-0.02 0.5,0.49 0.73,1.16 0.68,1.82 -0.11,4.41 -1.44,14.81 -3.21,24.37 -1.41,7.55 -3.1,14.66 -4.72,18.07 -1.19,2.5 -2.53,4.5 -3.83,6.44 -0.51,0.75 -1,1.49 -1.48,2.24l32.36 19.01c0.17,-0.05 0.66,-0.36 1.19,-0.71l0.01 0c0.33,-0.22 0.68,-0.45 1.03,-0.65 3.49,-1.99 7.22,-4.22 11.05,-6.51 6.49,-3.87 13.25,-7.91 18.41,-10.62 0.76,-4.7 0.64,-9.21 -0.07,-13.5 -0.78,-4.66 -2.25,-9.1 -4.04,-13.26 -1.69,-3.95 -3.46,-7.95 -5.3,-11.91 -1.86,-3.99 -3.74,-7.86 -5.63,-11.47 -0.59,-1.14 -0.15,-2.55 0.99,-3.14 0.72,-0.38 1.56,-0.34 2.22,0.04 2.94,1.67 11.3,8.09 18.75,14.33 6.14,5.14 11.74,10.24 13.4,12.65 1.29,1.87 3.06,4.62 4.54,7.41 0.58,1.09 1.11,2.19 1.56,3.25l29.45 -16.9 0.06 -35.89c-2.38,-1.99 -5.57,-3.9 -8.97,-5.49 -3.98,-1.86 -8.23,-3.28 -11.79,-3.89 -7.35,-1.27 -14.78,-1.78 -22.26,-2.3 -2.86,-0.2 -5.74,-0.4 -8.29,-0.61 -1.29,-0.1 -2.24,-1.23 -2.14,-2.51 0.07,-0.77 0.49,-1.41 1.09,-1.79 3.07,-2.1 19.4,-8.21 23.76,-9.85l0.85 -0.32c1.78,-0.67 4.04,-1.5 6.39,-2.26 2.37,-0.76 4.82,-1.43 6.92,-1.77 3.89,-0.63 7.2,-0.38 10.43,-0.14 1.35,0.1 2.68,0.2 4.01,0.23l0 -35.19 -23.34 -13.78c-0.62,-0.36 -1.2,-0.72 -1.8,-1.1 -1.03,-0.65 -2.12,-1.35 -2.72,-1.6 -1,-0.43 -5.63,2.45 -7.79,3.8l-0.81 0.49c-8.38,5.12 -13.74,12.87 -19.23,20.8l-2.3 3.32c-0.66,0.93 -1.17,1.68 -1.59,2.31l-1.41 2.23 -2.89 4.11c-0.22,0.28 -0.41,0.48 -0.65,0.74l-0.53 0.47c-0.98,0.83 -2.45,0.71 -3.28,-0.28 -0.42,-0.49 -0.6,-1.1 -0.55,-1.69 0.25,-5.31 1.55,-15.91 3.42,-25.49 1.41,-7.22 3.17,-13.95 5.1,-17.65 1.94,-3.73 3.19,-5.42 4.49,-7.19l0.99 -1.36 -32.72 -19.3c-0.43,-0.07 -2.34,1.13 -4.27,2.35 -0.8,0.5 -1.6,1 -2.39,1.45 -1.33,0.76 -2.85,1.65 -4.38,2.56 -1.4,0.83 -2.82,1.66 -4.49,2.61l-16.56 9.73zm12.14 68.13c4.04,-5.24 10.12,-8.75 16.75,-9.64l0.23 -0.03c7.14,-0.9 13.64,1.35 18.56,5.36 4.9,4 8.23,9.78 9.07,15.96l0.02 0.21c0.92,7.32 -1.3,13.93 -5.33,18.91 -3.97,4.9 -9.71,8.22 -15.93,9.07l-0.35 0.05c-7.28,0.88 -13.85,-1.34 -18.81,-5.35 -4.89,-3.97 -8.21,-9.71 -9.06,-15.94l-0.05 -0.34c-0.87,-7.1 1.15,-13.42 4.9,-18.26zm18.16 1.73c-6.31,0.85 -9.92,4.77 -11.14,9.36 -0.49,1.85 -0.6,3.81 -0.36,5.72 0.24,1.91 0.85,3.77 1.79,5.45l0.08 0.16c2.36,4.04 6.83,6.85 13.14,6.07l0.01 0c3.38,-0.42 6.51,-2.25 8.69,-4.95 2.17,-2.7 3.37,-6.29 2.88,-10.23l-0.01 -0.15c-0.45,-3.29 -2.28,-6.38 -4.95,-8.54l-0.11 -0.1c-2.65,-2.1 -6.12,-3.26 -9.88,-2.8l-0.14 0.01z"/>
   <path class="fil1" d="M293.08 193.6c-4.88,0 -9.45,-0.4 -13.7,-1.2 -4.25,-0.81 -8.19,-2.01 -11.81,-3.61 -3.61,-1.6 -6.88,-3.49 -9.81,-5.67 -2.93,-2.18 -5.51,-4.65 -7.74,-7.43 -0.14,-0.17 -0.13,-0.42 0.02,-0.58l14.4 -15.86c0.17,-0.19 0.45,-0.2 0.64,-0.03l0.05 0.06c2.07,2.28 4.24,4.26 6.51,5.95 2.28,1.69 4.66,3.08 7.14,4.17 2.48,1.09 4.98,1.91 7.5,2.45 2.52,0.55 5.07,0.82 7.63,0.82 2.94,0 5.52,-0.32 7.74,-0.98 2.19,-0.64 4.04,-1.61 5.54,-2.91 1.49,-1.29 2.61,-2.86 3.35,-4.71 0.75,-1.87 1.13,-4.03 1.13,-6.48 0,-2 -0.29,-3.76 -0.86,-5.26 -0.57,-1.49 -1.42,-2.75 -2.55,-3.76 -1.15,-1.01 -2.7,-1.89 -4.66,-2.63 -1.97,-0.73 -4.34,-1.32 -7.11,-1.76l-12.09 -1.98c-5.23,-0.9 -9.75,-2.31 -13.54,-4.25 -3.81,-1.95 -6.9,-4.42 -9.25,-7.43l-0.02 -0.02c-2.34,-2.97 -4.1,-6.28 -5.27,-9.92 -1.17,-3.64 -1.76,-7.61 -1.76,-11.91 0,-5.62 0.92,-10.62 2.77,-14.98 1.85,-4.38 4.62,-8.12 8.31,-11.21l0.04 -0.03c3.68,-3.09 8.1,-5.41 13.24,-6.95 5.15,-1.54 11.03,-2.32 17.64,-2.32 4.49,0 8.7,0.35 12.61,1.04 3.92,0.69 7.55,1.73 10.9,3.11 3.34,1.38 6.36,3.01 9.05,4.88 2.72,1.88 5.11,4.01 7.17,6.39 0.16,0.18 0.15,0.45 -0.02,0.61l-14.05 15.68c-0.17,0.18 -0.45,0.2 -0.63,0.03l-0.06 -0.05c-1.51,-1.68 -3.17,-3.17 -4.96,-4.49 -1.8,-1.32 -3.73,-2.46 -5.8,-3.41 -2.06,-0.95 -4.27,-1.67 -6.61,-2.14 -2.33,-0.48 -4.81,-0.72 -7.44,-0.72 -5.46,0 -9.55,1.12 -12.25,3.36 -2.68,2.22 -4.02,5.56 -4.02,10.04 0,1.96 0.3,3.67 0.9,5.11 0.59,1.43 1.48,2.62 2.66,3.57 1.21,0.98 2.81,1.84 4.79,2.58 2,0.74 4.39,1.36 7.17,1.85l12.09 2.15c4.72,0.83 8.92,2.14 12.56,3.92 3.67,1.79 6.79,4.05 9.37,6.78 2.58,2.75 4.52,5.98 5.81,9.68 1.29,3.69 1.93,7.85 1.93,12.48 0,2.72 -0.24,5.34 -0.71,7.86 -0.48,2.52 -1.19,4.94 -2.14,7.26 -0.95,2.33 -2.14,4.5 -3.57,6.51 -1.43,2.01 -3.09,3.86 -4.99,5.55l-0.02 0.02c-3.79,3.39 -8.45,6.04 -13.95,7.93 -2.76,0.95 -5.75,1.66 -8.96,2.13 -3.21,0.47 -6.65,0.71 -10.31,0.71zm95.52 0c-7.23,0 -13.58,-1 -19.07,-3.01 -5.5,-2.01 -10.13,-5.03 -13.87,-9.05 -3.74,-4.02 -6.55,-8.77 -8.42,-14.23 -1.86,-5.46 -2.8,-11.63 -2.8,-18.52 0,-3.5 0.25,-6.83 0.73,-9.98l0.01 -0.01c0.48,-3.15 1.21,-6.13 2.19,-8.95 0.97,-2.81 2.16,-5.42 3.55,-7.81 1.39,-2.4 3,-4.6 4.82,-6.58 1.81,-1.98 3.83,-3.73 6.03,-5.24 2.21,-1.51 4.61,-2.78 7.21,-3.81 2.6,-1.04 5.35,-1.81 8.26,-2.33 2.91,-0.51 5.98,-0.77 9.2,-0.77 3.23,0 6.29,0.26 9.18,0.77 2.9,0.52 5.64,1.3 8.21,2.33 2.56,1.03 4.94,2.28 7.11,3.74 2.18,1.47 4.17,3.16 5.96,5.06 1.78,1.9 3.37,4 4.75,6.3 1.38,2.3 2.56,4.8 3.54,7.51 0.97,2.7 1.7,5.57 2.19,8.59 0.49,3.02 0.73,6.19 0.73,9.52l0 7.29c0,0.24 -0.2,0.45 -0.45,0.45l-57.98 0 0 1.04c0,2.7 0.42,5.14 1.25,7.3 0.83,2.16 2.08,4.07 3.74,5.7 1.66,1.64 3.72,2.86 6.16,3.68 2.46,0.83 5.33,1.24 8.59,1.24 2.51,0 4.84,-0.24 6.98,-0.71 2.14,-0.48 4.11,-1.19 5.89,-2.13 1.79,-0.95 3.47,-2.06 5.02,-3.33 1.55,-1.26 2.97,-2.68 4.28,-4.26 0.16,-0.19 0.44,-0.22 0.63,-0.06l13.29 14.44c0.15,0.17 0.16,0.42 0.02,0.59 -1.68,2.07 -3.69,4 -6.04,5.79 -2.33,1.78 -5.01,3.42 -8.02,4.92 -3.02,1.51 -6.44,2.65 -10.25,3.4 -3.81,0.75 -8.02,1.12 -12.62,1.12zm-1.99 -71.84c-2.6,0 -4.92,0.4 -6.98,1.19 -2.05,0.79 -3.84,1.97 -5.36,3.55 -1.53,1.59 -2.68,3.45 -3.44,5.58 -0.77,2.13 -1.15,4.56 -1.15,7.27l0 0.88 33.53 0 0 -0.88c0,-2.76 -0.37,-5.22 -1.11,-7.38 -0.74,-2.15 -1.85,-4 -3.32,-5.55 -1.47,-1.55 -3.22,-2.72 -5.23,-3.49 -2.03,-0.78 -4.35,-1.17 -6.94,-1.17zm45.9 69.41l0 -85.42c0,-0.25 0.2,-0.45 0.45,-0.45l19.7 0c0.25,0 0.45,0.2 0.45,0.45l0 12.13 0.39 0c0.65,-1.9 1.43,-3.67 2.35,-5.31 0.96,-1.74 2.08,-3.34 3.34,-4.8 1.28,-1.48 2.84,-2.6 4.66,-3.35 1.81,-0.74 3.87,-1.11 6.19,-1.11 8.42,0 13.62,4.86 15.6,14.57l0.3 0c0.31,-0.91 0.66,-1.78 1.03,-2.63 0.42,-0.95 0.88,-1.88 1.38,-2.77 0.51,-0.9 1.07,-1.75 1.7,-2.54 0.62,-0.79 1.3,-1.53 2.03,-2.2 0.74,-0.68 1.55,-1.3 2.43,-1.84 0.88,-0.53 1.83,-1 2.85,-1.4 2.04,-0.79 4.41,-1.19 7.11,-1.19 12.22,0 18.33,8.93 18.33,26.77l0 61.09c0,0.24 -0.2,0.45 -0.45,0.45l-19.7 0c-0.25,0 -0.45,-0.21 -0.45,-0.45l0 -58.61c0,-1.95 -0.17,-3.6 -0.5,-4.96 -0.33,-1.32 -0.82,-2.36 -1.46,-3.1 -0.64,-0.75 -1.39,-1.31 -2.22,-1.69 -0.84,-0.37 -1.78,-0.56 -2.82,-0.56 -1.98,0 -3.67,0.66 -5.07,1.95 -0.69,0.64 -1.21,1.46 -1.56,2.45 -0.36,1.01 -0.53,2.21 -0.53,3.6l0 60.92c0,0.24 -0.21,0.45 -0.45,0.45l-19.87 0c-0.25,0 -0.45,-0.21 -0.45,-0.45l0 -58.61c0,-1.95 -0.15,-3.61 -0.46,-4.97 -0.3,-1.32 -0.75,-2.36 -1.34,-3.1l-0.03 -0.03c-0.58,-0.73 -1.27,-1.28 -2.06,-1.65 -0.81,-0.37 -1.74,-0.56 -2.78,-0.56 -2.09,0 -3.87,0.66 -5.33,1.96 -0.71,0.64 -1.25,1.45 -1.61,2.44 -0.37,1.01 -0.55,2.21 -0.55,3.6l0 60.92c0,0.24 -0.2,0.45 -0.45,0.45l-19.7 0c-0.25,0 -0.45,-0.21 -0.45,-0.45zm167.48 0.45c-5.19,0 -9.37,-1.34 -12.54,-4 -1.6,-1.34 -2.86,-2.97 -3.8,-4.89l-0.01 -0.03c-0.88,-1.79 -1.47,-3.85 -1.76,-6.15l-0.1 0c-0.78,2.73 -1.93,5.14 -3.43,7.22 -1.56,2.17 -3.51,3.99 -5.85,5.46 -2.34,1.46 -4.93,2.56 -7.77,3.28 -2.83,0.73 -5.93,1.09 -9.27,1.09 -8.39,0 -15.14,-2.27 -20.25,-6.82 -2.56,-2.28 -4.49,-5.02 -5.77,-8.21 -1.27,-3.19 -1.91,-6.83 -1.91,-10.91 0,-4.54 0.83,-8.49 2.49,-11.87 1.66,-3.38 4.15,-6.17 7.48,-8.37 3.3,-2.18 7.36,-3.82 12.19,-4.9 4.81,-1.09 10.37,-1.63 16.69,-1.63l13.29 0 0 -3.85c0,-2.5 -0.29,-4.69 -0.87,-6.56 -0.57,-1.85 -1.43,-3.4 -2.57,-4.65 -2.28,-2.49 -6.17,-3.74 -11.67,-3.74 -5.1,0 -9.22,0.97 -12.34,2.91 -1.58,0.98 -3.05,2.11 -4.4,3.38 -1.36,1.28 -2.61,2.7 -3.75,4.28 -0.15,0.2 -0.43,0.25 -0.63,0.1l-13.44 -11.94c-0.17,-0.15 -0.2,-0.41 -0.08,-0.59 1.46,-2.46 3.33,-4.7 5.6,-6.73 2.27,-2.02 4.96,-3.83 8.06,-5.42 3.1,-1.59 6.64,-2.79 10.61,-3.58 3.96,-0.79 8.35,-1.19 13.19,-1.19 5.88,0 11.14,0.68 15.74,2.03 4.63,1.35 8.6,3.39 11.93,6.1 3.35,2.73 5.86,6.15 7.52,10.26 1.67,4.09 2.5,8.88 2.5,14.34l0 36.96 8.99 0c0.24,0 0.45,0.21 0.45,0.45l0 17.72c0,0.24 -0.21,0.45 -0.45,0.45l-14.07 0zm-35.26 -14.98c2.11,0 4.06,-0.25 5.83,-0.76l0.03 -0.01c1.76,-0.51 3.36,-1.27 4.8,-2.29 1.43,-1 2.5,-2.23 3.21,-3.68 0.71,-1.45 1.07,-3.14 1.07,-5.05l0 -9.82 -12.63 0c-4.93,0 -8.61,0.82 -11.04,2.45 -2.38,1.59 -3.57,3.99 -3.57,7.2l0 3.31c0,1.42 0.27,2.66 0.82,3.73 0.54,1.06 1.36,1.95 2.46,2.68 2.24,1.5 5.24,2.24 9.02,2.24zm56.33 14.53l0 -85.42c0,-0.25 0.2,-0.45 0.45,-0.45l24.49 0c0.25,0 0.45,0.2 0.45,0.45l0 15.11 0.25 0c0.47,-1.14 0.99,-2.23 1.56,-3.28 0.61,-1.14 1.28,-2.25 2.01,-3.31 0.73,-1.07 1.54,-2.07 2.42,-3.01 0.88,-0.94 1.85,-1.82 2.89,-2.64 1.04,-0.81 2.16,-1.54 3.37,-2.19 1.21,-0.65 2.5,-1.21 3.88,-1.68 1.38,-0.48 2.85,-0.84 4.4,-1.08 1.55,-0.24 3.2,-0.36 4.93,-0.36 4.14,0 7.95,0.7 11.42,2.1 1.75,0.71 3.37,1.59 4.85,2.64l0.03 0.02c1.48,1.05 2.84,2.28 4.07,3.67 1.23,1.4 2.33,2.96 3.3,4.67 0.96,1.71 1.8,3.57 2.49,5.58 0.7,2.01 1.23,4.18 1.58,6.49 0.34,2.31 0.52,4.78 0.52,7.4l0 55.29c0,0.24 -0.2,0.45 -0.45,0.45l-24.5 0c-0.25,0 -0.45,-0.21 -0.45,-0.45l0 -51.98c0,-5.41 -1.16,-9.45 -3.49,-12.12 -2.31,-2.66 -5.8,-3.99 -10.46,-3.99 -0.92,0 -1.84,0.06 -2.74,0.18 -0.91,0.13 -1.81,0.31 -2.69,0.55 -0.89,0.24 -1.73,0.55 -2.51,0.93 -0.79,0.37 -1.53,0.81 -2.22,1.32l-0.03 0.02c-0.68,0.49 -1.29,1.05 -1.83,1.67l-0.01 0.02c-0.54,0.61 -1.01,1.29 -1.4,2.03 -0.39,0.73 -0.69,1.54 -0.89,2.41 -0.19,0.87 -0.3,1.82 -0.3,2.84l0 56.12c0,0.24 -0.2,0.45 -0.45,0.45l-24.49 0c-0.25,0 -0.45,-0.21 -0.45,-0.45zm137.34 0.45c-4.46,0 -8.35,-0.59 -11.68,-1.76 -3.36,-1.18 -6.14,-2.96 -8.34,-5.31 -2.2,-2.36 -3.84,-5.05 -4.94,-8.05 -1.09,-2.99 -1.64,-6.31 -1.64,-9.94l0 -41.16 -22.73 0c-0.24,0 -0.45,-0.2 -0.45,-0.45l0 -19.2c0,-0.25 0.21,-0.45 0.45,-0.45l15.07 0c1.78,0 3.3,-0.18 4.56,-0.52 1.22,-0.34 2.19,-0.85 2.91,-1.51 0.71,-0.66 1.25,-1.62 1.61,-2.86 0.38,-1.28 0.57,-2.87 0.57,-4.76l0 -20.03c0,-0.25 0.2,-0.45 0.45,-0.45l22.51 0c0.25,0 0.45,0.2 0.45,0.45l0 29.68 32.82 0c0.25,0 0.45,0.2 0.45,0.45l0 19.2c0,0.25 -0.2,0.45 -0.45,0.45l-32.82 0 0 46.11 32.82 0c0.25,0 0.45,0.2 0.45,0.45l0 19.21c0,0.24 -0.2,0.45 -0.45,0.45l-31.62 0zm90.06 -96.35c-2.8,0 -5.19,-0.29 -7.15,-0.86 -1.99,-0.59 -3.55,-1.48 -4.68,-2.67 -1.12,-1.17 -1.96,-2.47 -2.52,-3.89 -0.56,-1.42 -0.84,-2.96 -0.84,-4.61l0 -4.81c0,-3.43 1.12,-6.29 3.36,-8.59 1.13,-1.16 2.7,-2.02 4.69,-2.6 1.95,-0.56 4.34,-0.84 7.14,-0.84 2.79,0 5.18,0.28 7.13,0.84 2,0.58 3.56,1.44 4.69,2.6 2.24,2.3 3.36,5.16 3.36,8.59l0 4.81c0,3.31 -1.12,6.15 -3.35,8.5 -1.13,1.19 -2.7,2.08 -4.69,2.67 -1.96,0.57 -4.35,0.86 -7.14,0.86zm-39.4 76.24l26.7 0 0 -46.11 -26.7 0c-0.25,0 -0.45,-0.2 -0.45,-0.45l0 -19.2c0,-0.25 0.2,-0.45 0.45,-0.45l51.65 0c0.24,0 0.45,0.2 0.45,0.45l0 65.76 24.71 0c0.25,0 0.45,0.2 0.45,0.45l0 19.21c0,0.24 -0.2,0.45 -0.45,0.45l-76.81 0c-0.25,0 -0.45,-0.21 -0.45,-0.45l0 -19.21c0,-0.25 0.2,-0.45 0.45,-0.45zm128.95 22.09c-3.39,0 -6.61,-0.26 -9.66,-0.77 -3.05,-0.52 -5.93,-1.29 -8.62,-2.32 -2.71,-1.03 -5.21,-2.3 -7.5,-3.79 -2.29,-1.5 -4.37,-3.22 -6.24,-5.18 -1.87,-1.95 -3.53,-4.11 -4.97,-6.49 -1.43,-2.37 -2.65,-4.95 -3.66,-7.74 -1,-2.78 -1.75,-5.75 -2.25,-8.89 -0.5,-3.15 -0.75,-6.47 -0.75,-9.96 0,-7 1,-13.29 3,-18.86 2.01,-5.58 4.89,-10.32 8.63,-14.23 1.87,-1.95 3.95,-3.68 6.24,-5.18 2.29,-1.49 4.79,-2.76 7.5,-3.79 2.7,-1.03 5.56,-1.8 8.58,-2.32 3.02,-0.51 6.2,-0.77 9.54,-0.77 4.72,0 8.99,0.48 12.79,1.44 3.81,0.97 7.17,2.42 10.05,4.35 2.87,1.93 5.41,4.17 7.6,6.72 2.19,2.56 4.05,5.43 5.55,8.61 0.11,0.22 0.01,0.49 -0.21,0.6l-18.85 10.25c-0.22,0.11 -0.49,0.03 -0.61,-0.18l-0.01 -0.03c-0.76,-1.63 -1.64,-3.12 -2.63,-4.48 -0.98,-1.35 -2.09,-2.57 -3.31,-3.65 -1.19,-1.06 -2.65,-1.86 -4.36,-2.39 -1.73,-0.54 -3.74,-0.8 -6.01,-0.8 -5.5,0 -9.73,1.58 -12.67,4.73 -1.47,1.58 -2.58,3.46 -3.32,5.62 -0.74,2.17 -1.11,4.64 -1.11,7.4l0 13.91c0,2.76 0.37,5.24 1.11,7.41 0.74,2.16 1.85,4.03 3.32,5.61 1.47,1.57 3.28,2.76 5.43,3.55 2.17,0.79 4.69,1.19 7.57,1.19 2.33,0 4.4,-0.27 6.22,-0.81 1.8,-0.53 3.36,-1.34 4.67,-2.4 1.32,-1.08 2.55,-2.33 3.67,-3.74 1.13,-1.41 2.16,-2.99 3.08,-4.73 0.12,-0.22 0.39,-0.3 0.61,-0.19l18.55 10.6c0.21,0.12 0.29,0.39 0.18,0.6 -1.56,3.18 -3.48,6.05 -5.75,8.6 -2.28,2.55 -4.91,4.79 -7.9,6.72 -2.99,1.93 -6.45,3.38 -10.38,4.34 -3.91,0.96 -8.29,1.44 -13.12,1.44zm112.07 -1.98l-24.5 0c-0.25,0 -0.45,-0.21 -0.45,-0.45l0 -115.55c0,-0.25 0.2,-0.45 0.45,-0.45l44.69 0c5.69,0 10.76,0.87 15.23,2.6 2.23,0.86 4.3,1.92 6.19,3.17 1.89,1.24 3.61,2.68 5.15,4.3 1.54,1.63 2.89,3.42 4.05,5.38 1.16,1.96 2.13,4.09 2.92,6.38 1.56,4.57 2.34,9.69 2.34,15.37 0,8.25 -1.79,15.33 -5.36,21.25 -1.8,2.97 -3.98,5.45 -6.53,7.41 -2.42,1.86 -5.18,3.27 -8.29,4.23l22.45 45.71c0.11,0.22 0.02,0.49 -0.21,0.6 -0.06,0.03 -0.13,0.04 -0.19,0.04l-27.15 0.01c-0.19,0 -0.35,-0.12 -0.42,-0.29l-19.24 -42.59 -10.68 0 0 42.43c0,0.24 -0.2,0.45 -0.45,0.45zm14.24 -62.98c2.88,0 5.32,-0.27 7.31,-0.81 1.95,-0.54 3.47,-1.33 4.54,-2.37 1.07,-1.05 1.89,-2.45 2.43,-4.2 0.55,-1.78 0.83,-3.91 0.83,-6.41l0 -4.96c0,-2.5 -0.28,-4.63 -0.83,-6.41 -0.54,-1.75 -1.36,-3.15 -2.43,-4.2 -1.07,-1.04 -2.59,-1.84 -4.54,-2.37 -1.99,-0.54 -4.43,-0.81 -7.31,-0.81l-13.79 0 0 32.54 13.79 0zm92.03 64.96c-7.22,0 -13.58,-1 -19.06,-3.01 -5.51,-2.01 -10.13,-5.03 -13.88,-9.05 -3.74,-4.02 -6.54,-8.77 -8.41,-14.23 -1.86,-5.46 -2.8,-11.63 -2.8,-18.52 0,-3.5 0.25,-6.83 0.73,-9.98 0.49,-3.15 1.22,-6.14 2.19,-8.96 0.98,-2.81 2.17,-5.42 3.56,-7.81 1.39,-2.4 3,-4.6 4.81,-6.58 1.82,-1.98 3.84,-3.73 6.04,-5.24 2.21,-1.51 4.61,-2.78 7.21,-3.81 2.59,-1.04 5.35,-1.81 8.26,-2.33 2.91,-0.51 5.98,-0.77 9.2,-0.77 3.22,0 6.29,0.26 9.18,0.77 2.9,0.52 5.64,1.3 8.2,2.33 2.57,1.03 4.94,2.28 7.12,3.74 2.18,1.47 4.17,3.16 5.96,5.06 1.78,1.9 3.37,4 4.75,6.3 1.38,2.3 2.56,4.8 3.53,7.51 0.98,2.7 1.71,5.57 2.2,8.59 0.49,3.02 0.73,6.2 0.73,9.52l0 7.29c0,0.24 -0.2,0.45 -0.45,0.45l-57.98 0 0 1.04c0,2.7 0.41,5.14 1.25,7.3 0.83,2.16 2.08,4.07 3.74,5.7 1.66,1.64 3.72,2.86 6.16,3.68 2.46,0.83 5.33,1.24 8.59,1.24 2.51,0 4.84,-0.24 6.98,-0.71 2.14,-0.48 4.11,-1.19 5.89,-2.13 1.79,-0.95 3.46,-2.06 5.02,-3.33 1.54,-1.26 2.97,-2.68 4.28,-4.26 0.16,-0.19 0.44,-0.22 0.63,-0.06l13.29 14.44c0.15,0.17 0.15,0.42 0.01,0.59 -1.67,2.07 -3.69,4 -6.03,5.79 -2.34,1.78 -5.01,3.42 -8.02,4.92 -3.02,1.51 -6.44,2.65 -10.25,3.4 -3.81,0.75 -8.02,1.12 -12.63,1.12zm-1.98 -71.84c-2.6,0 -4.93,0.4 -6.98,1.19 -2.05,0.79 -3.84,1.97 -5.36,3.55 -1.53,1.58 -2.68,3.44 -3.44,5.58 -0.77,2.13 -1.15,4.56 -1.15,7.27l0 0.88 33.53 0 0 -0.88c0,-2.76 -0.38,-5.22 -1.12,-7.38 -0.73,-2.15 -1.84,-4 -3.31,-5.55 -1.47,-1.55 -3.22,-2.72 -5.23,-3.49 -2.04,-0.78 -4.35,-1.17 -6.94,-1.17zm52.64 49.75l25.7 0 0 -83.19 -25.7 0c-0.25,0 -0.45,-0.2 -0.45,-0.45l0 -19.2c0,-0.25 0.2,-0.45 0.45,-0.45l50.65 0c0.25,0 0.45,0.2 0.45,0.45l0 102.84 25.71 0c0.24,0 0.45,0.2 0.45,0.45l0 19.21c0,0.24 -0.21,0.45 -0.45,0.45l-76.81 0c-0.25,0 -0.45,-0.21 -0.45,-0.45l0 -19.21c0,-0.25 0.2,-0.45 0.45,-0.45zm132.1 22.09c-7.23,0 -13.58,-1 -19.07,-3.01 -5.5,-2.01 -10.13,-5.03 -13.87,-9.05 -3.74,-4.02 -6.55,-8.77 -8.42,-14.23 -1.86,-5.46 -2.8,-11.63 -2.8,-18.52 0,-3.5 0.25,-6.83 0.73,-9.98 0.49,-3.15 1.22,-6.14 2.2,-8.96 0.97,-2.81 2.16,-5.42 3.55,-7.81 1.39,-2.4 3,-4.6 4.82,-6.58 1.81,-1.98 3.83,-3.73 6.03,-5.24 2.21,-1.51 4.61,-2.78 7.21,-3.81 2.6,-1.04 5.35,-1.81 8.26,-2.33 2.91,-0.51 5.98,-0.77 9.2,-0.77 3.23,0 6.29,0.26 9.18,0.77 2.9,0.52 5.64,1.3 8.21,2.33 2.56,1.03 4.94,2.28 7.11,3.74 2.18,1.47 4.17,3.16 5.96,5.06 1.78,1.9 3.37,4 4.75,6.3 1.38,2.3 2.56,4.8 3.54,7.51 0.97,2.7 1.7,5.57 2.19,8.59 0.49,3.02 0.73,6.2 0.73,9.52l0 7.29c0,0.24 -0.2,0.45 -0.45,0.45l-57.98 0 0 1.04c0,2.7 0.42,5.14 1.25,7.3 0.83,2.16 2.08,4.07 3.74,5.7 1.67,1.64 3.72,2.86 6.16,3.68 2.46,0.83 5.33,1.24 8.59,1.24 2.51,0 4.84,-0.24 6.98,-0.71 2.14,-0.48 4.11,-1.19 5.89,-2.13 1.79,-0.95 3.47,-2.06 5.02,-3.33 1.55,-1.26 2.97,-2.68 4.28,-4.26 0.16,-0.19 0.44,-0.22 0.63,-0.06l13.29 14.44c0.15,0.17 0.16,0.42 0.02,0.59 -1.68,2.07 -3.69,4 -6.04,5.79 -2.33,1.78 -5.01,3.42 -8.02,4.92 -3.02,1.51 -6.44,2.65 -10.25,3.4 -3.81,0.75 -8.02,1.12 -12.62,1.12zm-1.99 -71.84c-2.6,0 -4.92,0.4 -6.98,1.19 -2.05,0.79 -3.83,1.97 -5.36,3.55 -1.53,1.58 -2.68,3.44 -3.44,5.58 -0.77,2.13 -1.15,4.56 -1.15,7.27l0 0.88 33.53 0 0 -0.88c0,-2.76 -0.37,-5.22 -1.11,-7.38 -0.74,-2.15 -1.85,-4 -3.32,-5.55 -1.47,-1.55 -3.22,-2.72 -5.23,-3.49 -2.03,-0.78 -4.35,-1.17 -6.94,-1.17zm122 69.86c-5.19,0 -9.37,-1.34 -12.54,-4 -1.59,-1.34 -2.86,-2.97 -3.8,-4.89l-0.01 -0.03c-0.87,-1.79 -1.46,-3.85 -1.76,-6.15l-0.09 0c-0.79,2.73 -1.93,5.14 -3.43,7.22 -1.57,2.17 -3.52,3.99 -5.86,5.46 -2.33,1.46 -4.92,2.56 -7.76,3.28 -2.84,0.73 -5.93,1.09 -9.28,1.09 -8.39,0 -15.14,-2.27 -20.25,-6.82 -2.56,-2.28 -4.48,-5.02 -5.76,-8.21 -1.28,-3.19 -1.92,-6.83 -1.92,-10.91 0,-4.54 0.83,-8.49 2.49,-11.87 1.66,-3.38 4.16,-6.17 7.48,-8.37 3.3,-2.18 7.37,-3.82 12.19,-4.9 4.81,-1.09 10.38,-1.63 16.7,-1.63l13.29 0 0 -3.85c0,-2.5 -0.29,-4.69 -0.87,-6.56 -0.58,-1.85 -1.43,-3.4 -2.57,-4.65 -2.29,-2.49 -6.18,-3.74 -11.68,-3.74 -5.1,0 -9.21,0.97 -12.34,2.91 -1.57,0.98 -3.04,2.11 -4.4,3.38 -1.35,1.28 -2.61,2.7 -3.75,4.28 -0.14,0.2 -0.43,0.25 -0.63,0.1l-13.44 -11.94c-0.17,-0.15 -0.2,-0.41 -0.07,-0.59 1.45,-2.46 3.32,-4.7 5.59,-6.73 2.28,-2.02 4.97,-3.83 8.07,-5.42 3.1,-1.59 6.64,-2.79 10.6,-3.58 3.96,-0.79 8.36,-1.19 13.19,-1.19 5.89,0 11.14,0.68 15.75,2.03 4.62,1.35 8.6,3.39 11.93,6.1 3.34,2.73 5.85,6.15 7.52,10.26 1.66,4.09 2.49,8.88 2.49,14.34l0 36.96 8.99 0c0.25,0 0.45,0.21 0.45,0.45l0 17.72c0,0.24 -0.2,0.45 -0.45,0.45l-14.07 0zm-35.26 -14.98c2.11,0 4.06,-0.25 5.84,-0.76l0.02 -0.01c1.76,-0.51 3.36,-1.27 4.81,-2.29 1.42,-1 2.5,-2.23 3.21,-3.68 0.71,-1.45 1.07,-3.14 1.07,-5.05l0 -9.82 -12.63 0c-4.93,0 -8.62,0.82 -11.05,2.45 -2.38,1.59 -3.57,3.99 -3.57,7.2l0 3.31c0,1.42 0.28,2.66 0.82,3.73 0.54,1.06 1.37,1.95 2.46,2.68 2.24,1.5 5.25,2.24 9.02,2.24zm94.69 16.96c-4.77,0 -9.23,-0.36 -13.38,-1.08 -4.16,-0.72 -8,-1.81 -11.54,-3.26 -3.54,-1.45 -6.64,-3.16 -9.31,-5.14 -2.67,-1.99 -4.9,-4.25 -6.7,-6.77 -0.13,-0.19 -0.1,-0.45 0.08,-0.59l13.72 -12.74c0.18,-0.17 0.47,-0.16 0.64,0.02 1.63,1.8 3.41,3.41 5.34,4.81l0.02 0.02c1.91,1.39 3.97,2.59 6.17,3.6 2.19,1 4.56,1.76 7.08,2.26 2.52,0.5 5.2,0.76 8.04,0.76 2.4,0 4.54,-0.19 6.41,-0.55 1.86,-0.37 3.46,-0.91 4.8,-1.63 1.31,-0.71 2.29,-1.6 2.93,-2.67 0.65,-1.08 0.97,-2.35 0.97,-3.81 0,-1.14 -0.21,-2.09 -0.64,-2.86 -0.43,-0.76 -1.07,-1.36 -1.92,-1.79 -0.91,-0.45 -2,-0.86 -3.28,-1.23 -1.28,-0.36 -2.74,-0.69 -4.38,-0.96l-13.73 -2.15c-1.94,-0.28 -3.82,-0.63 -5.62,-1.06l-0.05 -0.01c-1.79,-0.43 -3.52,-0.94 -5.17,-1.52 -1.67,-0.58 -3.25,-1.28 -4.7,-2.07 -1.46,-0.81 -2.81,-1.71 -4.04,-2.72 -1.24,-1.01 -2.36,-2.14 -3.34,-3.38 -0.98,-1.23 -1.84,-2.58 -2.57,-4.05 -0.74,-1.47 -1.29,-3.1 -1.66,-4.87 -0.36,-1.77 -0.54,-3.69 -0.54,-5.76 0,-4.54 0.87,-8.59 2.61,-12.16 1.74,-3.56 4.35,-6.64 7.83,-9.22 6.92,-5.14 16.61,-7.71 29.07,-7.71 4.21,0 8.12,0.29 11.72,0.86 3.61,0.57 6.9,1.42 9.88,2.57 2.98,1.14 5.67,2.53 8.06,4.16 2.39,1.64 4.48,3.52 6.27,5.65 0.15,0.17 0.14,0.42 0,0.59l-12.25 13.9c-0.16,0.19 -0.45,0.21 -0.63,0.04l-0.06 -0.05c-1.24,-1.35 -2.66,-2.59 -4.25,-3.73 -1.61,-1.14 -3.39,-2.18 -5.35,-3.1 -1.95,-0.92 -4.12,-1.62 -6.48,-2.08 -2.37,-0.46 -4.95,-0.69 -7.74,-0.69 -4.66,0 -8.14,0.69 -10.44,2.09 -2.23,1.34 -3.34,3.36 -3.34,6.07 0,1.19 0.22,2.19 0.65,2.99 0.42,0.79 1.06,1.39 1.91,1.82 0.91,0.45 2,0.86 3.28,1.23 1.28,0.37 2.74,0.69 4.38,0.96l13.56 2.15c1.95,0.28 3.83,0.64 5.63,1.06 1.8,0.43 3.54,0.94 5.21,1.53 3.36,1.17 6.3,2.77 8.83,4.79 1.26,1.01 2.4,2.14 3.4,3.38 1,1.24 1.86,2.59 2.59,4.05 0.74,1.47 1.29,3.1 1.66,4.87 0.36,1.78 0.55,3.7 0.55,5.76 0,4.54 -0.88,8.61 -2.64,12.2 -1.75,3.6 -4.38,6.71 -7.89,9.35 -3.5,2.63 -7.72,4.6 -12.67,5.91 -4.94,1.31 -10.6,1.96 -16.98,1.96zm94.68 0c-7.22,0 -13.58,-1 -19.06,-3.01 -5.5,-2.01 -10.13,-5.03 -13.88,-9.05 -3.73,-4.02 -6.54,-8.77 -8.41,-14.23 -1.86,-5.46 -2.8,-11.63 -2.8,-18.52 0,-3.5 0.25,-6.83 0.73,-9.98 0.49,-3.15 1.22,-6.14 2.19,-8.96 0.98,-2.81 2.17,-5.42 3.56,-7.81 1.39,-2.4 3,-4.6 4.82,-6.58 1.81,-1.98 3.83,-3.73 6.03,-5.24 2.21,-1.51 4.61,-2.78 7.21,-3.81 2.59,-1.04 5.35,-1.81 8.26,-2.33 2.91,-0.51 5.98,-0.77 9.2,-0.77 3.22,0 6.29,0.26 9.18,0.77 2.9,0.52 5.64,1.3 8.2,2.33 2.57,1.03 4.94,2.28 7.12,3.74 2.18,1.47 4.17,3.16 5.96,5.06 1.78,1.9 3.37,4 4.75,6.3 1.38,2.3 2.56,4.8 3.54,7.51 0.97,2.7 1.7,5.57 2.19,8.59 0.49,3.02 0.73,6.2 0.73,9.52l0 7.29c0,0.24 -0.2,0.45 -0.45,0.45l-57.98 0 0 1.04c0,2.7 0.41,5.14 1.25,7.3 0.83,2.16 2.08,4.07 3.74,5.7 1.66,1.64 3.72,2.86 6.16,3.68 2.46,0.83 5.33,1.24 8.59,1.24 2.51,0 4.84,-0.24 6.98,-0.71 2.14,-0.48 4.11,-1.19 5.89,-2.13 1.79,-0.95 3.46,-2.06 5.02,-3.33 1.54,-1.26 2.97,-2.68 4.28,-4.26 0.16,-0.19 0.44,-0.22 0.63,-0.06l13.29 14.44c0.15,0.17 0.15,0.42 0.02,0.59 -1.68,2.07 -3.69,4 -6.04,5.79 -2.34,1.78 -5.01,3.42 -8.02,4.92 -3.02,1.51 -6.44,2.65 -10.25,3.4 -3.81,0.75 -8.02,1.12 -12.63,1.12zm-1.98 -71.84c-2.6,0 -4.92,0.4 -6.98,1.19 -2.05,0.79 -3.84,1.97 -5.36,3.55 -1.53,1.58 -2.68,3.44 -3.44,5.58 -0.77,2.13 -1.15,4.56 -1.15,7.27l0 0.88 33.53 0 0 -0.88c0,-2.76 -0.37,-5.22 -1.12,-7.38 -0.73,-2.15 -1.84,-4 -3.31,-5.55 -1.47,-1.55 -3.22,-2.72 -5.23,-3.49 -2.04,-0.78 -4.35,-1.17 -6.94,-1.17z"/>
  </g>
 </g>
</svg>
